<svg xmlns="http://www.w3.org/2000/svg" version="1.1" viewBox="0 0 1920 1080" width="1920" height="1080">
<!--ITEM 1--><g><defs><clipPath id="clip-path-id-viewbox-item-1"><rect x="0.0" y="0.0" width="706.14" height="627.315"/></clipPath></defs><g transform="translate(84.0 378.0) rotate(0.0 353.0 313.5) scale(0.99980173903192 0.9994978599268309)"><g clip-path="url(#clip-path-id-viewbox-item-1)" transform="translate(-0.0 -0.0)"><g>
    <path d="M247,5.449v36.8a127.756,127.756,0,0,0-43.045,1.8C179.413,49.39,170.336,59.3,147.582,63.517c-10.673,1.977-26.542,3.106-47.144-2.049l24.6-14.349L87.114,27.647c24.973,5.837,43.99,4.314,56.369,2.05,20.689-3.786,29.916-10.938,55.343-17.423A223.775,223.775,0,0,1,247,5.449Z" style="         fill: #689fd7;       "/>
    <path d="M247,56.319a1,1,0,0,1-1-1V1a1,1,0,0,1,2,0V55.319A1,1,0,0,1,247,56.319Z" style="         fill: #403838;       "/>
    <path d="M167.28,187.527,242.035,58.74a6.177,6.177,0,0,1,10.47-.344L348.458,186.5Z" style="         fill: #ff5e43;       "/>
    <polygon points="153.731 187.527 140.92 627.199 304.388 627.199 324.886 180.353 153.731 187.527" style="         fill: #f8a036;       "/>
    <polygon points="54.318 627.199 54.318 256.194 170.129 230.572 135.284 627.199 54.318 627.199" style="         fill: #f8a036;       "/>
    <polygon points="170.129 230.572 252.12 261.319 211.125 627.199 135.284 627.199 170.129 230.572" style="         fill: #ffdc83;       "/>
    <polygon points="54.318 485.841 0 492.941 20.498 627.199 54.318 627.199 54.318 485.841" style="         fill: #f8a036;       "/>
    <polygon points="54.318 256.194 54.318 235.697 76.866 229.547 77.479 252.09 54.318 256.194" style="         fill: #f8a036;       "/>
    <polygon points="97.479 248.09 97.363 226.473 121.96 221.348 122.479 242.09 97.479 248.09" style="         fill: #f8a036;       "/>
    <polygon points="137.333 238.771 137.333 219.299 170.129 213.149 170.129 230.572 137.333 238.771" style="         fill: #f8a036;       "/>
    <polygon points="185.503 236.722 189.602 220.324 217.274 230.572 216.107 247.814 185.503 236.722" style="         fill: #ffdc83;       "/>
    <polygon points="232.379 253.916 236.746 240.821 255.194 246.97 252.047 261.966 232.379 253.916" style="         fill: #ffdc83;       "/>
    <path d="M54.318,292.265a1,1,0,0,1-.236-1.972l43.045-10.474a1,1,0,0,1,.472,1.944L54.555,292.237A1.016,1.016,0,0,1,54.318,292.265Z" style="         fill: #403838;       "/>
    <path d="M184.478,273.592a.986.986,0,0,1-.277-.039l-17.371-5.006L155.958,270.5a1,1,0,0,1-.354-1.969l11.332-2.038,17.819,5.136a1,1,0,0,1-.277,1.961Z" style="         fill: #403838;       "/>
    <path d="M184.478,358.657a1.013,1.013,0,0,1-.3-.046l-24.6-7.732-49.757,7.766a1,1,0,0,1-.308-1.976l50.218-7.838,25.052,7.872a1,1,0,0,1-.3,1.954Z" style="         fill: #403838;       "/>
    <path d="M54.318,426.849a1,1,0,0,1-.188-1.982l34.845-6.7a1,1,0,1,1,.378,1.964l-34.845,6.7A1.035,1.035,0,0,1,54.318,426.849Z" style="         fill: #403838;       "/>
    <path d="M102.487,417.075a1,1,0,0,1-.183-1.983l32.795-6.149a1,1,0,0,1,.369,1.966l-32.8,6.149A1.061,1.061,0,0,1,102.487,417.075Z" style="         fill: #403838;       "/>
    <path d="M187.553,491.891a.972.972,0,0,1-.249-.032L148.1,481.8l-47.5,8.028a1,1,0,0,1-.333-1.972l47.92-8.1,39.61,10.166a1,1,0,0,1-.248,1.969Z" style="         fill: #403838;       "/>
    <path d="M195.752,422.2a.992.992,0,0,1-.263-.036L154.11,410.891a1,1,0,0,1,.525-1.93l41.379,11.274a1,1,0,0,1-.262,1.965Z" style="         fill: #403838;       "/>
    <path d="M187.554,571.831a1.016,1.016,0,0,1-.144-.01l-46.628-6.69-46.438,2.6a1.012,1.012,0,0,1-1.054-.942,1,1,0,0,1,.943-1.055l46.635-2.61,46.827,6.718a1,1,0,0,1-.141,1.99Z" style="         fill: #403838;       "/>
    <polyline points="153.239 204.439 152.707 216.224 170.129 213.149 170.129 230.572 185.503 236.337 189.411 221.088 153.462 196.76" style="         fill: #e28f34;       "/>
    <polygon points="324.886 180.353 357.682 184.453 357.682 255.169 426.349 256.194 402.776 627.199 304.388 627.199 324.886 180.353" style="         fill: #ffdc83;       "/>
    <path d="M383.942,627.2h-65.2l6.865-77.847c1.277-14.476,15.41-25.665,32.419-25.665h0c18.917,0,33.839,13.73,32.419,29.83Z" style="         fill: #f8a036;       "/>
    <path d="M385.575,627.2H326.936l6.174-74.543c1.148-13.861,13.858-24.575,29.154-24.575h0c17.012,0,30.431,13.148,29.155,28.564Z" style="         fill: #ffdc83;       "/>
    <polygon points="153.731 187.527 152.707 163.955 193.702 161.906 194.479 188.09 153.731 187.527" style="         fill: #f8a036;       "/>
    <polygon points="217.479 186.09 214.199 161.906 254.169 159.856 254.479 185.09 217.479 186.09" style="         fill: #f8a036;       "/>
    <polygon points="423.359 303.245 572.906 320.761 511.413 627.199 450.471 627.199 402.776 627.199 423.359 303.245" style="         fill: #ffdc83;       "/>
    <rect x="364.856" y="245.945" width="21.522" height="10.249" style="         fill: #ffdc83;       "/>
    <rect x="397.652" y="246.97" width="19.473" height="10.249" style="         fill: #ffdc83;       "/>
    <rect x="437.622" y="295.139" width="21.42" height="11.274" transform="translate(39.943 -52.333) rotate(6.991)" style="         fill: #f8a036;       "/>
    <rect x="475.543" y="302.314" width="21.42" height="11.274" transform="translate(41.098 -56.896) rotate(6.991)" style="         fill: #f8a036;       "/>
    <rect x="538.06" y="308.463" width="21.42" height="11.274" transform="translate(42.311 -64.459) rotate(6.991)" style="         fill: #ffdc83;       "/>
    <polygon points="540.796 480.778 669.244 480.642 706.14 627.199 511.413 627.199 540.796 480.778" style="         fill: #f8a036;       "/>
    <polygon points="496.04 316.662 450.946 627.199 402.776 627.199 423.274 303.339 497.065 311.538 496.04 316.662" style="         fill: #f8a036;       "/>
    <path d="M335.406,556.21c1-13.719,12.11-24.324,25.477-24.324h0c14.866,0,26.593,13.013,25.478,28.272L381.224,627.2H343.655Z" style="         fill: #403838;       "/>
    <path d="M330.039,627.2l5.367-71.584a25.592,25.592,0,0,1,25.477-23.729h0a25.368,25.368,0,0,1,7.982,1.275l.127.042a12.608,12.608,0,0,1,8.439,12.55c-1.18,27.177-6.229,54.354-7.437,81.531C369.989,627.386,330.039,627.2,330.039,627.2Z" style="         fill: #262222;       "/>
    <path d="M353.584,282.816a1,1,0,0,1-.134-.009l-33.048-4.4-43.6,3.42a1,1,0,1,1-.157-1.994l43.815-3.437,33.258,4.429a1,1,0,0,1-.13,1.991Z" style="         fill: #403838;       "/>
    <path d="M241.87,361.732a1,1,0,0,1-.062-2l32.8-2.05a1,1,0,1,1,.125,2l-32.8,2.05Z" style="         fill: #403838;       "/>
    <path d="M267.5,449.91a1,1,0,0,1-.077-2l43.811-3.437,27.105,3.4a1,1,0,0,1-.249,1.984l-26.9-3.377-43.608,3.421C267.548,449.909,267.521,449.91,267.5,449.91Z" style="         fill: #403838;       "/>
    <polygon points="290.479 183.09 292.09 160.881 324.886 158.831 324.875 180.584 290.479 183.09" style="         fill: #f8a036;       "/>
    <polygon points="54.318 485.766 54.318 627.199 23.029 489.931 54.318 485.766" style="         fill: #d88830;       "/>
    <polygon points="237.082 395.525 237.082 627.199 211.023 627.199 237.082 395.525" style="         fill: #d88830;       "/>
    <path d="M530.887,369.931c-.03,0-.06,0-.091,0l-41.888-3.769-33-5.465a1,1,0,0,1,.327-1.973l32.927,5.455,41.815,3.759a1,1,0,0,1-.089,2Z" style="         fill: #403838;       "/>
    <path d="M511.413,439.622H511.4l-33.234-.407-30.514-6.791a1,1,0,0,1,.434-1.952L478.5,437.24l32.924.382a1,1,0,0,1-.012,2Z" style="         fill: #403838;       "/>
    <path d="M504.24,544.16l-.065,0-40.712-2.6a1,1,0,0,1,.128-2l40.712,2.6a1,1,0,0,1-.063,2Z" style="         fill: #403838;       "/>
    <polygon points="423.274 303.339 402.776 627.199 437.016 305.068 423.274 303.339" style="         fill: #d88830;       "/>
    <polygon points="541.135 480.642 533.011 627.199 511.413 627.199 541.135 480.642" style="         fill: #d88830;       "/>
    <path d="M544.884,460.4l27-.259-5.4,21.945-24.251.448a1.593,1.593,0,0,1-1.673-1.923Z" style="         fill: #f8a036;       "/>
    <polygon points="596.479 482.09 602.627 462.194 622.1 462.194 625.479 482.09 596.479 482.09" style="         fill: #f8a036;       "/>
    <polygon points="669.244 480.642 666.17 464.244 653.871 464.244 656.479 482.09 669.244 480.642" style="         fill: #f8a036;       "/>
    <path d="M410.466,506.73a1.081,1.081,0,0,1-.15-.011L372.907,501.1a1,1,0,1,1,.3-1.978l37.41,5.615a1,1,0,0,1-.147,1.989Z" style="         fill: #403838;       "/>
  </g>
</g></g></g><!--ITEM 2--><g><defs><clipPath id="clip-path-id-viewbox-item-2"><rect x="0.0" y="0.0" width="440.608" height="408.789"/></clipPath></defs><g transform="translate(1279.0 496.0) rotate(0.0 238.0 220.5) scale(1.0803253685815963 1.0787961515598512)"><g clip-path="url(#clip-path-id-viewbox-item-2)" transform="translate(-0.0 -0.0)"><g>
    <g>
      <path d="M137.644,85.7C60.8,152.177-18.754,238.922,3.933,304.263c42.11,121.286,368.7,138.338,427.213,44.265,33.677-54.147-28.581-140.834-91.83-223.8Z" style="         fill: #ff5e43;       "/>
      <path d="M135.476,26.064c-3.309,5.493-13.241,24.926,2.168,62.887L331.727,126.9c22.95-12.946,27.222-26,28.19-32.527,4.944-33.351-51.344-64.85-82.4-76.983C235.808,1.1,158.405-11.991,135.476,26.064Z" style="         fill: #ff5e43;       "/>
      <ellipse cx="251.737" cy="54.353" rx="43.27" ry="110.064" transform="translate(118.519 274.758) rotate(-71.034)" style="         fill: #262222;       "/>
    </g>
    <path d="M109.6,110.844c4.948,2.688,27.741-3.438,33.713-2.111,9.265,2.059,25.711,2.738,42.02,4.1-9.913-3.208-6.316-1.653-18.754-8.279-11.448-6.1-21.788-12.222-29.573-18.18C133.236,89.461,109.567,110.824,109.6,110.844Z" style="         fill: #e54630;       "/>
    <path d="M276.922,132.589a235.484,235.484,0,0,1-54.983-6.475,236.477,236.477,0,0,1-84.77-39.283,1,1,0,1,1,1.18-1.615,234.5,234.5,0,0,0,84.056,38.953,237.752,237.752,0,0,0,113.664-.987,1,1,0,0,1,.5,1.938A242.363,242.363,0,0,1,276.922,132.589Z" style="         fill: #0e1049;       "/>
    <path d="M181.8,158.026a12.476,12.476,0,0,1-10.222-19.6l16.83-24.146a1,1,0,0,1,1.811.438l3.927,29.17A12.5,12.5,0,0,1,181.8,158.026Zm6.78-40.5-15.361,22.039a10.458,10.458,0,1,0,18.945,4.585Z" style="         fill: #0e1049;       "/>
    <path d="M159.51,138.567a12.557,12.557,0,0,1-4.885-1,12.458,12.458,0,0,1,4.935-23.936l29.432.214a1,1,0,0,1,.664,1.742l-21.83,19.742A12.36,12.36,0,0,1,159.51,138.567Zm-.044-22.934a10.458,10.458,0,1,0,7.018,18.215l19.925-18.019-26.863-.2Z" style="         fill: #0e1049;       "/>
  </g>
</g></g></g><!--ITEM 3--><g><defs><clipPath id="clip-path-id-viewbox-item-3"><rect x="0.0" y="0.0" width="1165.029" height="756.12"/></clipPath></defs><g transform="translate(604.0 301.0) rotate(0.0 582.5 378.0) scale(0.9999751079157686 0.9998412950325345)"><g clip-path="url(#clip-path-id-viewbox-item-3)" transform="translate(-0.0 -0.0)"><g>
    <g>
      <path d="M1088.562,687.673h0a43.026,43.026,0,0,1-33.69-.231l-91.827-39.814a31.213,31.213,0,0,1-10.538,13.7c-9.9,7.126-21.962,6.258-28.909,3.989-23.285-7.6-35.23-45.992-23.795-57.249,10.873-10.7,41.435,4.555,43.564,5.641l-34.452-56.887-5.623-16.553,12.083-19.153,33.979,9.2,65.684,70.506,15.625,11" style="         fill: #ffe3c3;       "/>
      <path d="M1118.605,698.9a91.636,91.636,0,0,0,.564-27.517c-3.761-28.411-20.089-47.314-27.5-54.9q-67.294-36.264-63.016-49.663,1.717-5.378,14.96-7.07a45.478,45.478,0,0,0-3.288-6.471c-8.481-13.824-20.7-16.917-30.007-23.059-16.606-10.962-11-23.108-28.665-45.631-6.349-8.1-16.881-19.034-34.408-28.831a23.4,23.4,0,0,1,6.935-13.669c8.585-8.081,20.138-5.865,21.3-5.622a414.132,414.132,0,0,1,41.4,39.961c14.217,15.805,21.325,23.708,24.313,31.291,3.361,8.531,4.539,17.015,12.663,23.865,5.013,4.226,8.933,4.679,14.575,7.141,7.7,3.361,17.869,10.145,27.574,25.364,4.74,4.573,10.261,10.247,16.13,17.029,1.392,1.609,6.259,7.273,11.611,14.422a276.287,276.287,0,0,1,23.967,38.509c17.421,23.387,18.856,48.836,8.424,59.122-3.5,3.455-10.276,7.1-18.092,8.261A36.108,36.108,0,0,1,1118.605,698.9Z" style="         fill: #ffe3c3;       "/>
      <path d="M1120.177,696.723a2.82,2.82,0,0,1-3.12,2.033l-29.8-4.306a7,7,0,0,1-5.643-6.479,98.988,98.988,0,0,0-2.855-19.139,101.294,101.294,0,0,0-20.432-39.938q-44.067-49.149-88.135-98.3L937.647,493.61a43.687,43.687,0,0,1-1.142-11.7,46.793,46.793,0,0,1,9.832-26.354,217.968,217.968,0,0,1,26.925,15.682,225.011,225.011,0,0,1,61.724,63.668l73.053,97.3a74.233,74.233,0,0,1,12.138,64.52Z" style="         fill: #689fd7;       "/>
      <path d="M1076.436,582.169a3.14,3.14,0,0,1-3.429,4.845q-23.217-6.755-22.74-10.486.4-3.119,17.334-4.127a3.151,3.151,0,0,1,2.748,1.3Z" style="         fill: #eacaac;       "/>
      <path d="M1149.692,700.3a14.672,14.672,0,0,1-14.92-.939,12.006,12.006,0,0,1-3.147-3.2c-5.706-8.618,3.126-20.632,7.706-42.093a119.82,119.82,0,0,0,2.583-28.009q-46.442-22.045-43.961-32.919.828-3.624,7.091-6.007c-14.545-5.763-22.7-13.88-21.359-19.177.183-.725,1.317-4.459,10.507-6.6,4.895,2.167,14.753,7.448,20.17,18.372a34.809,34.809,0,0,1,2.383,6.264,86.384,86.384,0,0,1,11.728,11.258,87.849,87.849,0,0,1,16.366,28.524c20.764,24.994,25.524,52.73,14.224,67.12A26.53,26.53,0,0,1,1149.692,700.3Z" style="         fill: #c7d94f;       "/>
      <path d="M1120.324,697.077c-1.144,2.555-3.717,3.62-6.507,3.847-3.18.258-6.408-.39-8.518-2.2-4.066-3.486.322-10.8-.185-20.062-1.052-19.218-21.886-23.435-27.267-43.406-1.395-5.179-2.182-13.018,1.474-23.893a5.065,5.065,0,0,1,8.121-2.208c8.373,7.277,26.009,22.246,33,42.86C1126.565,670.058,1124.063,688.726,1120.324,697.077Z" style="         fill: #ff5e43;       "/>
      <path d="M931.4,665.342a1.02,1.02,0,0,1-.266-.036,37.268,37.268,0,0,1-23.972-19.4c-3.492-7.265-3.978-14.965-1.332-21.127,4.083-9.506,16.182-15.858,29.41-15.427a1,1,0,1,1-.063,2c-12.43-.394-23.743,5.449-27.509,14.217-2.418,5.631-1.946,12.728,1.3,19.471a35.271,35.271,0,0,0,22.7,18.339,1,1,0,0,1-.265,1.964Z" style="         fill: #403838;       "/>
      <path d="M999.431,461.008c-2.136.294-13.917,1.707-24.257-6.493a32.129,32.129,0,0,1-11.135-17.725,28.064,28.064,0,0,1,10.536-.524c17.9,2.576,26.569,22.367,27.493,24.564Z" style="         fill: #eacaac;       "/>
      <path d="M1074.736,651.106c-25.017-18.352-50.33-37.8-75.347-56.154a91.382,91.382,0,0,1-17.49-16.829l-29.4-37C938.95,525,919.5,523.931,911.723,531.815c-5.227,5.3-5.633,15.083-2.662,24.178h0a10.424,10.424,0,0,1-13.356-4.958,27.819,27.819,0,0,1,30.251-39.8l19.9-7.847c29.8,31.733,52.869,54.354,69.751,70.267,14.42,13.593,34.287,31.685,51.552,62.3C1070.408,641.7,1073.134,647.717,1074.736,651.106Z" style="         fill: #ffe3c3;       "/>
      <path d="M1047.138,681.986a11.97,11.97,0,0,1-3.074-10.464,25.713,25.713,0,0,0,.344-6.721c-1.372-16.706-18.553-23.08-19.526-39.732l-.006-.122a6.1,6.1,0,0,1,9.841-4.965l39.371,30.332c3.38,6.189,4.266,12.663,6.356,23.669a87.946,87.946,0,0,1,1.538,15.868c-3.672.812-13.233,4.122-23.89-.149A31.915,31.915,0,0,1,1047.138,681.986Z" style="         fill: #eacaac;       "/>
      <path d="M957.806,516.142a36.8,36.8,0,0,1-26.23-.334,7.67,7.67,0,0,1-4.821-6.458,15.007,15.007,0,0,1,3.842-11.816,14.3,14.3,0,0,1,7.584-3.987Q947.993,504.845,957.806,516.142Z" style="         fill: #c7d94f;       "/>
      <path d="M1024.787,539.118a4.1,4.1,0,0,1-1.06,7.333,51.49,51.49,0,0,1-15.737,2.309,53.654,53.654,0,0,1-32.565-11.854l-37.449-42.424a9.144,9.144,0,0,1-2.274-5.448,42.491,42.491,0,0,1,2.435-17.3c29.407,10.083,37.747,21.316,39.583,30.073,1.2,5.72.058,12.464,5.336,18.378,5.23,5.861,14.144,7.971,17.087,8.668a43.382,43.382,0,0,0,4.864.863,25.984,25.984,0,0,1,9.784,3.231q3.943,2.244,8.081,4.91Q1023.844,538.488,1024.787,539.118Z" style="         fill: #e54630;       "/>
    </g>
    <g>
      <g id="Path-i3">
        <path d="M76.993,231.037c-8.11-13.285-9.474-27.214-3.049-31.111S110.786,175.119,118.9,188.4c2.294,3.756,28.6,3.917,27.653,10.807-.958,6.973-37.485,10.6-41.012,17.367-5.312,10.188,5.633,27.859-2.225,31.454C96.479,251.161,85.1,244.32,76.993,231.037Z" style="         fill: #f8b5a4;       "/>
      </g>
      <g id="Oval-i3">
        <path d="M67.857,245.422c-8.28.225-15.374-13.667-15.845-31.028s5.859-31.617,14.139-31.842c5.814-.158,18.55,4,19.959,6.679,1.132,2.154-3.591,13.763-4.113,24.349C81.371,226.275,75.634,245.211,67.857,245.422Z" style="         fill: #f8b5a4;       "/>
      </g>
      <g id="Path-4-i3">
        <path d="M154.234,260.175c-9.444,7.228-37.713,16.593-66,15.544-25.38-.942-50.261-8.828-48.6-20.348,3.055-21.226,23.163-6.545,55.1-18.069,22.711-8.194,21.947-16.315,32.7-26.628C127.443,225.4,154.222,245.45,154.234,260.175Z" style="         fill: #f8b5a4;       "/>
      </g>
      <g id="Path-7-i3">
        <path d="M59.362,271.187a1,1,0,0,1-.916-.6c-2.418-5.464-12.912-12.426-17.467-12.454a1,1,0,0,1,.012-2c5.71.035,16.7,7.814,19.285,13.645a1,1,0,0,1-.914,1.405Z" style="         fill: #403838;       "/>
      </g>
      <path d="M66.572,188.145l35.82,13.026,9.77,32.564c-14.033,4.489-20.1,2.961-22.795,0-4.689-5.145.238-15.219-5.427-19.538-3.465-2.642-6.887-.078-10.855-2.171C69.3,210.031,65.853,204.244,66.572,188.145Z" style="         fill: #c99085;       "/>
      <path d="M79.091,230.871a1,1,0,0,1-.995-.909,70.343,70.343,0,0,1,6.021-35.519,1,1,0,0,1,1.821.827,68.366,68.366,0,0,0-5.85,34.511,1,1,0,0,1-.9,1.086C79.152,230.87,79.121,230.871,79.091,230.871Z" style="         fill: #403838;       "/>
      <g id="Path-2-i3" data-name="Path">
        <path d="M92.669,199.362c-5-4.565-9.619-5.558-19.939-8.82-26.928-8.511-23.821-10.708-30.2-10.5-16.716.559-25.819,12.626-36.4,7.68C4.9,187.152,1.8,185.46.739,183.416-3.67,174.955,12.4,157.142,29.1,149.924c15.311-6.617,35.473-9.549,66.346-3.586,20.2,3.813,55.554,12.755,81.81,29.215l-8.841,88.185c-12.814-.586-26.072,5.362-37.846.32-7.3-1.611-11.482-4.689-13.851-6.955-8.8-8.415-5.655-18.119-14.327-40.735C97.954,204.79,94.831,201.336,92.669,199.362Z" style="         fill: #f8b5a4;       "/>
      </g>
      <g id="Path-3-i3">
        <path d="M1.817,183.338a1,1,0,0,1-.317-1.949c1.205-.4,2.55-2.2,3.348-4.484.827-2.364.854-4.672.07-5.88A1,1,0,0,1,6.6,169.936c1.143,1.76,1.2,4.613.141,7.63-.8,2.291-2.432,5-4.6,5.721A1,1,0,0,1,1.817,183.338Z" style="         fill: #403838;       "/>
      </g>
    </g>
    <polygon points="192.173 542.141 173.319 648.61 288.661 677.445 323.041 562.104 192.173 542.141" style="         fill: #9a74a3;       "/>
    <path d="M195.869,367.864a107.609,107.609,0,0,1-32.439-21.139c-4.072-3.878-35.15-33.471-27.846-58.224,3.869-13.111,16.206-17.073,30.377-26.58,18.2-12.211,40.392-34.216,56.958-77.209,6.094-13.024,18.07-20.533,29.112-18.986,6.866.961,11.63,5.181,13.923,7.594Z" style="         fill: #ae84d3;       "/>
    <rect x="134.655" y="196.486" width="114.233" height="68.611" rx="12" transform="translate(-88.818 337.142) rotate(-71.034)" style="         fill: #ae84d3;       "/>
    <path d="M307.723,273.312,324.013,181A218.073,218.073,0,0,1,372.672,77.591a175.329,175.329,0,0,1,83.759-54.5l21.594-6.395c45.505-13.476,94.659-9.63,136.882,12.037a186.636,186.636,0,0,1,33.8,22.28,328.744,328.744,0,0,1,72.874,85.086l21.264,35.717,39.481,66.311c2.181,3.664,16,27.8,6.645,57.375a70.266,70.266,0,0,1-38.436,43.113l-97.272,43.555Z" style="         fill: #ae84d3;       "/>
    <path d="M739.335,226.215a1,1,0,0,1-.9-1.429,72.5,72.5,0,0,0,4.086-51.637,1,1,0,0,1,1.919-.564,74.493,74.493,0,0,1-4.2,53.059A1,1,0,0,1,739.335,226.215Z" style="         fill: #403838;       "/>
    <path d="M556.518,604.835l-131.093-26.99,9.468-31.109L562.25,584.248ZM427.977,576.328,555.092,602.5l4.7-16.889-123.566-36.4Z" style="         fill: #403838;       "/>
    <path d="M799.067,351.059c9.067,11.2,37.412,49.134,34.175,101.258a137.53,137.53,0,0,1-12.657,49.363c54.348-25.282,118.13-6.633,148.089,40.5,14.271,22.452,16.788,54.7,17.025,57.93,1.419,19.338,2.9,39.551-8.9,53.9-15.238,18.527-48.185,21.894-81.584,9.806q-31.015,6.872-63.541,12.551C675.93,703.425,531.548,701.428,405.2,685.812c-38.31-11.284-78.6-32.527-80.733-75.526-.016-.339-.032-.679-.046-1.019C321.759,545.188,367.361,481.794,439.6,448.52L638.32,433.331Z" style="         fill: #4ca2bb;       "/>
    <path d="M481.127,194.837c-3.712-6.566-42.652-72.961-113.915-77.209-43.451-2.59-75.162,19.341-83.538,25.315-41.486,29.587-55.484,74.716-75.944,168.341-10.875,49.768-22.667,109.077-33.762,176.674a64.033,64.033,0,0,0,39.687,69.956l66.491,26.208a58.432,58.432,0,0,0,77.42-37.654l21.522-72.126,7.11-23.828q2.195,13.028,4.39,26.056l67.756-13.4Z" style="         fill: #4ca2bb;       "/>
    <g>
      <g id="Group-4-2-i3">
        <g id="Group-6-3-i3">
          <g id="Path-33-i3">
            <path d="M443.553,554.691c12.456,65.859-23.362,142.511,44.589,158.071,45.482,19,85.872,2.682,92.851,0C612.7,750.233,617.228,757.156,631.388,756c15.889-1.288,2.034-15.037-6.509-36.268,1.625.167,36.533,4.644,40.2-3.633,4.481-10.135-12.312-14.264-17.752-18.019,9.742-1.726,15.054.405,15.309-7.266.292-8.954-39.789-25.436-114.766-46.747-5-1.42,17.742-55.284,12.5-56.673Z" style="         fill: #f8b5a4;       "/>
          </g>
          <g id="Path-34-i3">
            <path d="M625.889,725.484a1,1,0,0,1-.894-.551c-1.207-2.4-2.25-4.616-3.17-6.568-3.15-6.688-5.425-11.519-10.979-17.291a59.835,59.835,0,0,0-29.575-16.457,1,1,0,0,1,.439-1.951,61.831,61.831,0,0,1,30.569,17.013c5.79,6.017,8.124,10.973,11.356,17.834.959,2.036,1.952,4.143,3.147,6.523a1,1,0,0,1-.893,1.448Z" style="         fill: #403838;       "/>
          </g>
          <g id="Path-35-i3">
            <path d="M644.662,698.158a1,1,0,0,1-.546-.162,172.547,172.547,0,0,0-54.94-23.564,1,1,0,1,1,.459-1.947,174.577,174.577,0,0,1,55.575,23.836,1,1,0,0,1-.548,1.837Z" style="         fill: #403838;       "/>
          </g>
          <g id="Path-36-i3">
            <path d="M625.513,750.8a11.974,11.974,0,0,1-4.438-.966c-3.743-1.518-7.623-4.759-7.8-8.017h0c-.16-3.012,2.845-5.978,5.7-7.459,3.475-1.8,6.958-1.759,9.319.106,2.02,1.6,3.357,4.684,3.489,8.059.115,2.948-.687,5.442-2.2,6.842A5.838,5.838,0,0,1,625.513,750.8Zm-1.553-15.763a8.953,8.953,0,0,0-4.057,1.1c-2.732,1.414-4.722,3.812-4.627,5.577h0c.108,2.036,3.046,4.849,6.55,6.269,2.751,1.116,5.145,1.084,6.4-.082,1.053-.975,1.651-3,1.562-5.3-.11-2.807-1.156-5.324-2.731-6.567A4.914,4.914,0,0,0,623.96,735.037Z" style="         fill: #403838;       "/>
          </g>
          <g id="Path-37-i3">
            <path d="M651.276,713.988c-2.4,0-4.935-.619-6.341-1.947a6.222,6.222,0,0,1-.953-6.885,4.811,4.811,0,0,1,5.033-2.945c3.869.42,8.77,4.9,8.741,7.994a3.434,3.434,0,0,1-2.415,3.072A10.746,10.746,0,0,1,651.276,713.988Zm-2.848-9.809a2.864,2.864,0,0,0-2.629,1.814,4.284,4.284,0,0,0,.508,4.593h0c1.488,1.406,5.882,1.858,8.25.851.79-.336,1.193-.757,1.2-1.25.018-1.893-4-5.666-6.956-5.987A3.422,3.422,0,0,0,648.428,704.179Z" style="         fill: #403838;       "/>
          </g>
          <g id="Path-38-i3">
            <path d="M653.132,692.241a7.644,7.644,0,0,1-5.159-1.614h0c-1.4-1.367-1.7-3.943-.709-6.126a4.5,4.5,0,0,1,4.526-2.846c3.383.27,7.556,4.2,7.443,7a3.451,3.451,0,0,1-2.509,2.966A9.974,9.974,0,0,1,653.132,692.241Zm-3.764-3.048c1.136,1.106,4.538,1.4,6.616.57.456-.181,1.226-.578,1.251-1.189.065-1.615-3.165-4.731-5.605-4.926a2.551,2.551,0,0,0-2.545,1.681c-.623,1.371-.5,3.1.283,3.864Z" style="         fill: #403838;       "/>
          </g>
        </g>
      </g>
      <g id="Path-2-2-i3">
        <path d="M483.448,682.165l-7.9,23.872q34.121,18.145,44.026,23.872c38.372,22.176,50.8,31.666,50.8,18.188,0-6.982-2.831-15.808-7.9-23.762-7.312-11.471-19.363-22.2-35-31.94Q515.481,684.922,483.448,682.165Z" style="         fill: #f8b5a4;                fill-rule: evenodd;       "/>
      </g>
      <g id="Path-48-i3">
        <path d="M562.66,751.193a12.087,12.087,0,0,1-4.723-1.1c-2.918-1.265-5.927-3.657-6.074-6.149h0c-.115-1.939,1.574-4.169,4.3-5.68,2.555-1.417,6.255-2.238,8.977-.3a8.478,8.478,0,0,1,3.137,6.573,6.706,6.706,0,0,1-2,5.513A5.55,5.55,0,0,1,562.66,751.193Zm-1.309-12.362a9.132,9.132,0,0,0-4.216,1.186c-1.964,1.089-3.342,2.692-3.276,3.813h0c.079,1.335,2.22,3.281,4.873,4.432s5.064,1.25,6.266.251a4.921,4.921,0,0,0,1.284-3.9,6.559,6.559,0,0,0-2.3-5.018A4.474,4.474,0,0,0,561.351,738.831Z" style="         fill: #403838;       "/>
      </g>
      <g id="Path-3-2-i3">
        <path d="M556.981,719.241a1,1,0,0,1-.8-.4c-8.708-11.7-16.254-20-22.427-24.67-6.132-4.633-13.993-8-23.364-10a1,1,0,1,1,.417-1.956c9.659,2.06,17.786,5.544,24.153,10.355,6.324,4.78,14,13.215,22.825,25.073a1,1,0,0,1-.8,1.6Z" style="         fill: #403838;       "/>
      </g>
      <path d="M453.67,602.173c5.449,2.414,13.712,6.206,23.572,11.273,30.112,15.476,39.886,24.745,54.319,22.548,4.744-.722,11.688-2.942,19.472-10.249.313-1.53,1.3-3.468,1.611-5C519.877,614.419,486.437,608.5,453.67,602.173Z" style="         fill: #dda094;       "/>
    </g>
    <path d="M694.631,506.823a1,1,0,0,1,0-2c2.474,0,125.674-7.138,126.919-7.21a1,1,0,0,1,.115,2C816.583,499.905,697.162,506.823,694.631,506.823Z" style="         fill: #403838;       "/>
    <path d="M708.3.152a68.739,68.739,0,0,1,55.338,21.866c6.254,6.853,10.233,14.139,9.328,20.47-2.4,16.754-18.309,24.933-19.858,25.7,18.833,2.7,33.549,12.272,36.212,24.531,4.217,19.422-23.689,36.982-28.035,39.716-49.9,31.4-126.96-13.768-139.007-21.026L507.8,13.285Z" style="         fill: #ae84d3;       "/>
    <path d="M558.384,23.132c-1.346,7.2,30.645,15.859,57.238,18.83,59.839,6.687,125.964-11.671,123.821-21.341-1.953-8.81-60.971-12.17-98.123-11.3C611.47,10.024,560.036,14.3,558.384,23.132Z" style="         fill: #8c6fb5;       "/>
    <rect x="467.296" y="506.151" width="77.096" height="139.433" rx="12" transform="translate(-140.633 987.655) rotate(-81.2)" style="         fill: #ae84d3;       "/>
    <path d="M443.928,541.032a64.774,64.774,0,0,0,5.545,13.308c18.293,32.911,67.591,51.952,106.47,37.708a78.138,78.138,0,0,0,26.617-16.636Z" style="         fill: #8c6fb5;       "/>
    <path d="M755.449,66.88a77.312,77.312,0,0,0-10.967.68c-11.048,1.478-16.029,4.221-25.508,6.654-15.561,3.994-24.324,2.073-24.4,3.328-.143,2.394,31.984,6.3,47.69,2.218a75.424,75.424,0,0,0,12.2-4.437,64.173,64.173,0,0,0,7.764-4.436L759.5,69.4Z" style="         fill: #8c6fb5;       "/>
    <g>
      <path d="M786.416,316.328l-2.725-8.265-36.662,16.388c-2.125.183-40.635,2.848-62-27a61.85,61.85,0,0,1-8.641-17.284,198.148,198.148,0,0,1-14.527,83.657l-.019.019-2.307,1.044-45.507,31.2s10.267,46.346,29.253,37.486l155.36-79.566a2.488,2.488,0,0,0,1.185-3.114Z" style="         fill: #8c6fb5;       "/>
      <path d="M676.388,280.167a213.835,213.835,0,0,0-2.886-27.489A69.854,69.854,0,0,0,676.388,280.167Z" style="         fill: #8c6fb5;       "/>
    </g>
    <path d="M415.309,324.279a127.436,127.436,0,0,1,3.111,12.687c4.807,25.083-.833,36.653,5.545,53.234a54.033,54.033,0,0,0,11.1,17.46l-21.083,59.065-23.29,9.982-4.437-26.618Z" style="         fill: #3d768a;       "/>
    <path d="M386.2,451.514a1.036,1.036,0,0,1-.226-.025,1,1,0,0,1-.75-1.2l30.343-131.785a1,1,0,1,1,1.949.449L387.173,450.738A1,1,0,0,1,386.2,451.514Z" style="         fill: #403838;       "/>
    <path d="M533.022,130.285a315.479,315.479,0,0,0-64.552,99.993c-27.01,67.165-23.907,127.016-20.252,156.95-3.677,4.8-51.53,69.092-27.846,126.572,31.447,76.322,170.64,96.049,217.705,35.441,26.127-33.646,21.818-89.413-3.8-139.23a215.376,215.376,0,0,0,32.909-67.084c15.93-55.333,5.119-102.657-1.266-124.041" style="         fill: #ae84d3;       "/>
    <path d="M446.146,349.165c1.394,8.248,6.686,24.811,21.072,41.035a83.362,83.362,0,0,0,24.4,18.854,50.242,50.242,0,0,1-29.945,0,49.609,49.609,0,0,1-19.963-12.2l6.654-9.982Z" style="         fill: #8c6fb5;       "/>
    <path d="M647.373,394.7c-5.691,3.7-17.367,8.981-27.173,12.134a97.988,97.988,0,0,1-36.6,4.436,133.593,133.593,0,0,0,55.237,8.007c-1.407-2.669-2.334-6.564-3.74-9.233Z" style="         fill: #8c6fb5;       "/>
    <path d="M426.155,137.153c26.862,15.272,39.462,20.948,48.827,17.928,8.056-2.6,11.065-7.965,23.29-14.418a91.116,91.116,0,0,1,34.381-9.981c-17.176,22.326-34.951,48.653-52.126,70.979-3.22-6.672-6.465-18.236-12.2-25.508C453.017,156.739,438.135,144.536,426.155,137.153Z" style="         fill: #8c6fb5;       "/>
    <path d="M391.127,58.975a149.925,149.925,0,0,0,56.851-9.145C478.2,38.468,490.43,22.029,499.255,11.7v0c-.042-.165-36.1,4.945-66.619,19.285A166.518,166.518,0,0,0,391.127,58.975Z" style="         fill: #8c6fb5;       "/>
    <path d="M645.125,396.47a1,1,0,0,1-.842-1.538,199.083,199.083,0,0,0,23.761-52.922,203.187,203.187,0,0,0,3.582-93.7,1,1,0,0,1,1.963-.384,205.209,205.209,0,0,1-3.62,94.632,201.081,201.081,0,0,1-24,53.453A1,1,0,0,1,645.125,396.47Z" style="         fill: #403838;       "/>
    <path d="M740.524,326.628A39.047,39.047,0,0,1,727.7,324.4a1,1,0,0,1,.655-1.889,36.183,36.183,0,0,0,15.572,1.95c4.786-.485,8.386-1.9,22.66-8.9,5.516-2.706,11.109-5.5,16.626-8.306a1,1,0,0,1,.906,1.783c-5.525,2.809-11.127,5.608-16.651,8.318-14.545,7.137-18.253,8.582-23.34,9.1A35.782,35.782,0,0,1,740.524,326.628Z" style="         fill: #403838;       "/>
    <path d="M831.823,467.691a127.087,127.087,0,0,1-10.11,31.072l-124.47,6.94c70.934-8.813,97.345-15.413,105.251-20.276.383-.235,6.139-3.8,14.12-8.629C823.022,472.92,828.3,469.776,831.823,467.691Z" style="         fill: #3d768a;       "/>
    <path d="M178.5,525.163c-2.971,4.518,36.63,32.536,40.356,34.4a73.723,73.723,0,0,0,7.013,2.969c3.692,1.487,21.044,8.683,27.9,11.5,24.44,10.043,36.66,15.064,49.263,14.425a66.356,66.356,0,0,0,22.917-5.143c.239-.108,1.523-9.02,3.083-13.857a78.477,78.477,0,0,1,5-12c-7.43-4.154-18.923-9.134-33-9a62.822,62.822,0,0,0-21,4C242.6,564.945,182.206,519.527,178.5,525.163Z" style="         fill: #3d768a;       "/>
    <path d="M54.211,643.2h0a45.209,45.209,0,0,1,22.618-27.232l93.5-48.134a32.8,32.8,0,0,1-4.124-17.69c.8-12.794,9.535-22.019,16-26.156,21.684-13.865,60.842,1.984,62.379,18.773.742,8.117-7.357,15.9-15.8,21.727a7.111,7.111,0,0,0,3.025,12.9l48.366,6.9,17.2,6.45,7.524,22.573-30.1,21.5L173.76,641.262l-19.349,5.375" style="         fill: #ffe3c3;       "/>
    <path d="M25.08,660.147a96.247,96.247,0,0,0,21.992,18.779c25.6,15.858,51.834,15.171,62.935,14.2q74.282-30.558,82.325-18.159,3.227,4.976-4.214,16.868a47.924,47.924,0,0,0,7.45,1.635c16.882,2.31,27.533-5.565,38.721-9.039,19.967-6.2,26.108,6.442,56.177,7.08,10.807.229,26.711-1.05,46.343-8.775A24.584,24.584,0,0,1,343.3,697.47c.853,12.359-8.64,20.275-9.613,21.059a434.924,434.924,0,0,1-60.046,7.048c-22.313,1.033-33.47,1.55-41.623-1.07-9.172-2.948-16.853-7.639-27.829-5.6-6.774,1.262-9.752,4.147-15.509,7.093-7.859,4.022-20.144,7.771-38.975,5.528-6.873.808-15.162,1.518-24.582,1.773-2.234.061-10.079.246-19.453-.164a290.311,290.311,0,0,1-47.259-6.156C27.8,725.575,6.162,709.8,4.746,694.471c-.475-5.148,1.069-13.082,5.331-20.208A37.939,37.939,0,0,1,25.08,660.147Z" style="         fill: #ffe3c3;       "/>
    <path d="M25.806,662.878a2.964,2.964,0,0,1,.424-3.891l23.34-21.355a7.359,7.359,0,0,1,9.024-.274A103.9,103.9,0,0,0,76.052,647.78a106.433,106.433,0,0,0,46.067,9.982l138.582-6.2,51.733-1.831A45.923,45.923,0,0,1,322.7,656.6a49.165,49.165,0,0,1,14.877,25.538,229.009,229.009,0,0,1-30.673,11.445,236.44,236.44,0,0,1-92.849,7.785l-127.726-5.4a78,78,0,0,1-60.527-33.089Z" style="         fill: #689fd7;       "/>
    <path d="M148.044,703.59a3.3,3.3,0,0,1-1.655-6.013q20.947-14.374,23.663-11.5,2.271,2.4-8.185,16.838a3.311,3.311,0,0,1-2.887,1.367Z" style="         fill: #eacaac;       "/>
    <path d="M3.251,684.491a15.415,15.415,0,0,1,10.7-11.5,12.64,12.64,0,0,1,4.7-.428c10.8,1.1,14.689,16.278,29.085,34.288A125.842,125.842,0,0,0,68.776,727.6q48.84-23.073,56.027-13.817,2.4,3.086.161,9.763c14.37-7.986,26.4-9.209,29.81-4.594.467.631,2.748,4.039-1.63,12.935-5.022,2.536-15.877,7.033-28.364,4.164a36.6,36.6,0,0,1-6.678-2.234,90.687,90.687,0,0,1-16.96,2.038,92.307,92.307,0,0,1-34.081-5.687C32.92,730.4,7.2,715.8,3.031,697.038A27.87,27.87,0,0,1,3.251,684.491Z" style="         fill: #c7d94f;       "/>
    <path d="M25.42,662.761c-1.315-2.631-.468-5.431,1.2-7.85,1.908-2.758,4.583-4.95,7.458-5.461,5.541-.984,8.562,7.451,16.431,13.207,16.322,11.939,33.62-2.188,53.436,6.734,5.139,2.314,12.035,6.894,18.441,17.106a5.321,5.321,0,0,1-3.612,8.071c-11.489,1.962-35.4,6.331-56.812-1.709C43.228,685.823,29.719,671.36,25.42,662.761Z" style="         fill: #ff5e43;       "/>
    <path d="M93.14,656.311c31.573-8.117,64.238-15.742,95.81-23.86a96.023,96.023,0,0,1,25.324-3.013l49.65.731c22.128-.272,35.943-15.37,34.714-26.943-.825-7.775-8.51-14.622-17.881-18.261h0a10.955,10.955,0,0,1,12.922-7.557A29.231,29.231,0,0,1,305.893,628.5l-6.874,21.4c-45.632,3.093-79.381,6.788-103.557,9.916-20.649,2.671-48.582,6.775-84.961.427C103.664,659.053,96.961,657.265,93.14,656.311Z" style="         fill: #ffe3c3;       "/>
    <path d="M86.413,613.319a12.574,12.574,0,0,1,10.552,4.467,27.037,27.037,0,0,0,5.235,4.755c14.493,10.007,31.112.285,45.3,10.581l.1.076a6.406,6.406,0,0,1-2.516,11.305L94.215,656.311c-7.281-1.372-13.133-4.962-23.471-10.592a92.364,92.364,0,0,1-13.923-9.314c1.785-3.525,5.46-13.5,16.026-19.32A33.53,33.53,0,0,1,86.413,613.319Z" style="         fill: #eacaac;       "/>
    <path d="M280.7,651.12a38.673,38.673,0,0,1,17.735-21.1,8.061,8.061,0,0,1,8.459.381,15.769,15.769,0,0,1,7.047,10.99,15.031,15.031,0,0,1-1.808,8.819Z" style="         fill: #c7d94f;       "/>
    <path d="M217.426,690.269a4.3,4.3,0,0,1-5.255-5.744,54.071,54.071,0,0,1,8.6-14.329,56.371,56.371,0,0,1,31.318-18.579l59.417-2.2a9.612,9.612,0,0,1,5.942,1.779,44.623,44.623,0,0,1,12.44,13.5c-27.775,17.191-42.458,16.492-50.8,12.154-5.449-2.834-10.171-8.251-18.492-7.9-8.246.35-15.9,6.19-18.422,8.118a45.854,45.854,0,0,0-3.94,3.38,27.332,27.332,0,0,1-9.14,5.8c-2.967,1.141-6.092,2.249-9.372,3.3Q218.566,689.921,217.426,690.269Z" style="         fill: #ff5e43;       "/>
    <path d="M158.061,620.178a6.492,6.492,0,1,1,6.491-6.492A6.5,6.5,0,0,1,158.061,620.178Zm0-10.983a4.492,4.492,0,1,0,4.491,4.491A4.5,4.5,0,0,0,158.061,609.2Z" style="         fill: #403838;       "/>
    <path d="M184.341,605.273a6.492,6.492,0,1,1,6.491-6.491A6.5,6.5,0,0,1,184.341,605.273Zm0-10.983a4.492,4.492,0,1,0,4.491,4.492A4.5,4.5,0,0,0,184.341,594.29Z" style="         fill: #403838;       "/>
    <path d="M180.879,595.52a1,1,0,0,1-.748-.335,51.49,51.49,0,0,0-29.263-16.437,1,1,0,0,1,.359-1.968,53.49,53.49,0,0,1,30.4,17.075,1,1,0,0,1-.746,1.665Z" style="         fill: #403838;       "/>
    <path d="M154.721,610.329a1,1,0,0,1-.966-.743,28.6,28.6,0,0,0-7.383-12.843,28.932,28.932,0,0,0-15.146-7.882,1,1,0,0,1,.355-1.968,30.962,30.962,0,0,1,16.2,8.435,30.605,30.605,0,0,1,7.9,13.743,1,1,0,0,1-.967,1.258Z" style="         fill: #403838;       "/>
    <path d="M181.424,568.419c-2-2.444-7.507-9.833-6.105-18.666.857-5.4,3.925-9.024,8.237-14.12a64.162,64.162,0,0,1,13.728-12.159,27.31,27.31,0,0,1,15.183,2.264c-2.432,1.079-17.874,8.235-22.635,25.192a37.894,37.894,0,0,0,0,19.983Z" style="         fill: #ff5e43;       "/>
    <path d="M206.305,589.191A6.491,6.491,0,1,1,212.8,582.7,6.5,6.5,0,0,1,206.305,589.191Zm0-10.982A4.491,4.491,0,1,0,210.8,582.7,4.5,4.5,0,0,0,206.305,578.209Z" style="         fill: #403838;       "/>
    <path d="M202.418,579.821a.992.992,0,0,1-.665-.254,43.03,43.03,0,0,0-18.048-9.625,42.221,42.221,0,0,0-13.411-1.149,1,1,0,0,1-.147-2,44.238,44.238,0,0,1,14.045,1.2,45.03,45.03,0,0,1,18.892,10.073,1,1,0,0,1-.666,1.746Z" style="         fill: #403838;       "/>
    <path d="M219.166,571.023a1,1,0,0,1-.753-1.657c8.613-9.856,11.394-22.966,6.764-31.883-2.973-5.727-9.069-10.078-16.723-11.935-10.045-2.438-21-.159-30.061,6.25a1,1,0,1,1-1.156-1.632c9.531-6.744,21.08-9.136,31.688-6.562,8.217,1.994,14.788,6.717,18.028,12.958,5,9.629,2.107,23.659-7.034,34.119A.994.994,0,0,1,219.166,571.023Z" style="         fill: #403838;       "/>
  </g>
</g></g></g><!--ITEM 4--><g><defs><clipPath id="clip-path-id-viewbox-item-4"><rect x="0.0" y="0.0" width="216.408" height="229.663"/></clipPath></defs><g transform="translate(893.0 121.0) rotate(0.0 112.5 119.0) scale(1.0397027836309194 1.0363010149654057)"><g clip-path="url(#clip-path-id-viewbox-item-4)" transform="translate(-0.0 -0.0)"><g>
    <ellipse cx="186.253" cy="72.557" rx="13.697" ry="36.524" transform="translate(15.275 176.101) rotate(-52.483)" style="         fill: #0b0e33;       "/>
    <ellipse cx="152.773" cy="35.75" rx="36.524" ry="13.697" style="         fill: #0b0e33;       "/>
    <ellipse cx="115.235" cy="18.503" rx="36.524" ry="13.697" transform="translate(-1.459 16.497) rotate(-8.137)" style="         fill: #0b0e33;       "/>
    <ellipse cx="58.693" cy="29.548" rx="11.763" ry="31.367" transform="translate(26.107 86.61) rotate(-86.993)" style="         fill: #0e1049;       "/>
    <ellipse cx="85.599" cy="21.995" rx="8.9" ry="23.732" transform="translate(-1.566 36.596) rotate(-23.92)" style="         fill: #0e1049;       "/>
    <path d="M65.6,43.232C67.74,50,54.837,60.106,36.785,65.8S2.367,70.629.231,63.859,11,46.984,29.05,41.288,63.467,36.462,65.6,43.232Z" style="         fill: #0e1049;                fill-rule: evenodd;       "/>
    <ellipse cx="17.837" cy="96.623" rx="36.524" ry="13.697" transform="translate(-79.701 84.772) rotate(-72.613)" style="         fill: #0b0e33;       "/>
    <ellipse cx="30.012" cy="126.047" rx="36.524" ry="13.697" transform="translate(-94.154 89.014) rotate(-60)" style="         fill: #0b0e33;       "/>
    <g id="Oval-2-2-i4">
      <ellipse cx="32.916" cy="161.749" rx="20.842" ry="20.985" transform="matrix(0.063, -0.998, 0.998, 0.063, -130.588, 184.395)" style="         fill: #dda094;       "/>
    </g>
    <g id="Oval-25-i4">
      <ellipse cx="109.919" cy="106.208" rx="92.072" ry="95.693" transform="translate(-1.16 1.214) rotate(-0.63)" style="         fill: #0e1049;       "/>
    </g>
    <g id="Combined-Shape-i4">
      <path d="M96.567,60.4c43.839-2.269,96.849,51.837,96.849,51.837l.315,13.822a100.137,100.137,0,0,1-63.168,95.389,76.7,76.7,0,0,1-29.188,7.333c-37.8,1.957-69.856-23.177-71.589-56.137a52.66,52.66,0,0,1,1.754-16.519A50.384,50.384,0,0,1,20.5,127.552C18.724,93.771,52.721,62.665,96.567,60.4Z" style="         fill-rule: evenodd;                fill: #f8b5a4;       "/>
    </g>
    <g id="Combined-Shape-2-i4">
      <path d="M76.748,226.557c-47-14-46.7-51.161-46.959-54.1-.644-7.391-.835-5.953.257-12.661.291-1.788.647-3.047.879-4.184.155-.759,2.192-.381,2.871.076,1.1.739-3.1,6.91-4.1,11.715-2.421,11.566,11.838,23.853,17.948,29.118,0,0,13.235,11.405,29.692,16.159,47.815,13.81,93.455-23.8,100.081-29.475h0C153.381,221.313,111.337,236.86,76.748,226.557Z" style="         fill-rule: evenodd;                fill: #dda094;       "/>
    </g>
    <g id="Path-11-11-i4">
      <path d="M86.509,169.278a.988.988,0,0,1-.345-.062l-7.985-2.943a6.217,6.217,0,0,1-3.714-3.79,5.658,5.658,0,0,1,.732-5.137l1.964-2.712a1,1,0,0,1,1.62,1.174h0l-1.964,2.711a3.657,3.657,0,0,0-.459,3.32,4.2,4.2,0,0,0,2.513,2.557l7.984,2.944a1,1,0,0,1-.346,1.938Z" style="         fill: #403838;       "/>
    </g>
    <g id="Path-i4">
      <path d="M172.287,99.109c-9.69,3.467-59.876,20.372-102.814-6.405-4.873-3.038-6.515-4.328-12.4-8.038-.851-.536-2.171,48.846-35.115,49.042-5.662-3.687,14.471-58.189,19.758-68.94Z" style="         fill: #dda094;       "/>
    </g>
    <g id="Path-13-3-i4">
      <path d="M39.415,71.5C51.48,78.468,74.793,87.773,99.92,95.022s59.379,6.154,97.911,4.252q-12.879-44.512-49.61-58.907C123.739,30.768,83.445,43.086,39.415,71.5Z" style="         fill: #0e1049;                fill-rule: evenodd;       "/>
    </g>
    <g id="Oval-7-2-i4">
      <ellipse cx="191.304" cy="109.9" rx="21.034" ry="21.077" transform="translate(-26.08 72.225) rotate(-20.044)" style="         fill: #f8b5a4;       "/>
    </g>
    <g id="Path-9-3-i4">
      <path d="M200.306,123a1,1,0,0,1-.751-1.66c4.911-5.591,6.315-11.07,4.293-16.752-2.013-5.654-6.451-8.756-13.569-9.483a1,1,0,1,1,.2-1.99c7.854.8,12.984,4.437,15.249,10.8,2.257,6.337.684,12.643-4.673,18.742A1,1,0,0,1,200.306,123Z" style="         fill: #403838;       "/>
    </g>
    <g id="Path-15-2-i4">
      <path d="M55.459,53.838Q45.426,81.162,39.439,94.98t-19.7,41.31l-2-16.844C14.519,92.249,29.536,66.137,55.459,53.838Z" style="         fill: #0e1049;                fill-rule: evenodd;       "/>
    </g>
    <path d="M80.739,179.31c.538.438,6.99,5.5,15.219,3.044,8.409-2.505,10.979-10.558,11.16-11.16Z" style="         fill: #fff;       "/>
    <ellipse cx="37.459" cy="102.067" rx="30.374" ry="11.39" transform="translate(-71.258 100.855) rotate(-69.208)" style="         fill: #0e1049;       "/>
    <ellipse cx="31.015" cy="117.548" rx="30.374" ry="11.39" transform="translate(-86.642 86.948) rotate(-60.641)" style="         fill: #0e1049;       "/>
    <ellipse cx="149.078" cy="90.717" rx="12.827" ry="31.367" transform="translate(2.802 185.886) rotate(-64.37)" style="         fill: #0e1049;       "/>
    <path d="M23.411,138.317a7.5,7.5,0,0,1-3.783-13.978l18.941-11.056a7.5,7.5,0,1,1,7.707,12.868c-.049.03-.1.058-.148.087L27.185,137.293A7.469,7.469,0,0,1,23.411,138.317Z" style="         fill: #0e1049;       "/>
    <path d="M87.666,106.771A7.5,7.5,0,0,1,86.27,91.9l21.543-4.1a7.5,7.5,0,1,1,2.81,14.735l-21.543,4.1A7.534,7.534,0,0,1,87.666,106.771Z" style="         fill: #0e1049;       "/>
    <g>
      <path d="M68.405,144.785c-3.394-6.037-15.058-6.524-26.052-1.088a38.025,38.025,0,0,0-5.186,3.094c6.323,1.327,11.179,5.9,11.715,11.756a12.689,12.689,0,0,1-4.155,10.324,37.273,37.273,0,0,0,9.918-3.31C65.639,160.124,71.8,150.822,68.405,144.785Z" style="         fill: #fff;       "/>
      <path d="M37.167,146.791c-7.63,5.43-11.387,12.677-8.574,17.682,2.367,4.209,8.757,5.712,16.134,4.4a12.689,12.689,0,0,0,4.155-10.324C48.346,152.69,43.49,148.118,37.167,146.791Z" style="         fill: #2b2929;       "/>
    </g>
    <g>
      <path d="M133.546,118.951c-3.1-6.307-14.887-7.456-26.329-2.567a38.542,38.542,0,0,0-5.428,2.842c6.33,1.7,10.993,6.6,11.206,12.568a12.874,12.874,0,0,1-4.79,10.225,37.813,37.813,0,0,0,10.234-2.8C129.882,134.334,136.645,125.258,133.546,118.951Z" style="         fill: #fff;       "/>
      <path d="M101.789,119.226c-8.035,5.072-12.249,12.2-9.68,17.43,2.161,4.4,8.549,6.279,16.1,5.363A12.87,12.87,0,0,0,113,131.794C112.782,125.83,108.119,120.926,101.789,119.226Z" style="         fill: #2b2929;       "/>
    </g>
  </g>
</g></g></g><!--ITEM 5--><g><defs><clipPath id="clip-path-id-viewbox-item-5"><rect x="0.0" y="0.0" width="106.812" height="86.261"/></clipPath></defs><g transform="translate(561.0 484.0) rotate(0.0 53.0 43.0) scale(0.9923978579185859 0.9969742989299916)"><g clip-path="url(#clip-path-id-viewbox-item-5)" transform="translate(-0.0 -0.0)"><g>
    <polygon points="0 60.659 5.113 26.991 82.743 0 99.849 35.596 0 60.659" style="         fill: #f8a036;       "/>
    <path d="M57.115,38.7c1.22,1.773,5.51,2.152,10.173.782s8.064-4.011,8.131-6.162l-1.936-6.974L54.969,31.786Z" style="         fill: #e28f34;       "/>
    <path d="M14.2,50.193c1.26,1.987,5.475,2.563,9.988,1.236s7.746-4.091,7.731-6.445l-2.157-7.711L11.843,42.542Z" style="         fill: #e28f34;       "/>
    <path d="M17.388,30.094c1.138,1.871,4.831,2.483,8.751,1.33s6.7-3.665,6.639-5.854l-2.023-7.211L15.188,22.935Z" style="         fill: #e28f34;       "/>
    <path d="M54.381,19.24c1.248,2.054,5.3,2.725,9.6,1.46s7.348-4.023,7.287-6.426L69.052,6.36,51.965,11.383Z" style="         fill: #e28f34;       "/>
    <polygon points="15.031 86.261 106.812 59.281 99.849 35.596 0 60.659 15.031 86.261" style="         fill: #ffdc83;       "/>
    <ellipse cx="20.616" cy="39.267" rx="9.34" ry="4.67" transform="translate(-10.238 7.408) rotate(-16.381)" style="         fill: #ffdc83;       "/>
    <ellipse cx="64.396" cy="29.643" rx="9.649" ry="4.221" transform="translate(-5.746 19.365) rotate(-16.381)" style="         fill: #ffdc83;       "/>
    <ellipse cx="60.509" cy="8.871" rx="8.905" ry="5.48" transform="translate(-0.046 17.425) rotate(-16.381)" style="         fill: #ffdc83;       "/>
    <ellipse cx="22.971" cy="20.647" rx="8.113" ry="4.993" transform="translate(-4.891 7.317) rotate(-16.381)" style="         fill: #ffdc83;       "/>
  </g>
</g></g></g></svg>