<?xml version="1.0" encoding="UTF-8"?><svg xmlns="http://www.w3.org/2000/svg" viewBox="0 0 604.03 1001.99"><defs><style>.k{fill:none;}.k,.l,.m,.n,.o{stroke:#000;}.k,.n{stroke-linecap:round;stroke-linejoin:round;stroke-width:3.75px;}.p{stroke:#047ac1;}.p,.l,.m,.q,.o{stroke-miterlimit:10;}.r{fill:#00baff;}.s{fill:blue;}.t{fill:#1a1a1a;}.m,.n{fill:#fff;}.q{fill:#4d4d4d;stroke:#4d4d4d;}.n{fill-rule:evenodd;}.o{font-family:HWTArtz, HWT Artz;font-size:75.08px;letter-spacing:.08em;}</style></defs><g id="a"/><g id="b"><g id="c"><rect class="r" x="1.59" y="161.42" width="602.44" height="39.04" rx="9.43" ry="9.43"/><path class="s" d="M72.59,81.09h460.45c22.08,0,40,17.92,40,40v39.59H32.59v-39.59c0-22.08,17.92-40,40-40Z"/><path class="r" d="M138.55,90.85h393.69c22.08,0,40,17.92,40,40v30.58H98.55v-30.58c0-22.08,17.92-40,40-40Z"/><path class="l" d="M56.98,1001.48h0c-8.33-.35-14.79-7.01-14.42-14.88l8.68-184.52c.37-7.87,7.42-13.97,15.76-13.62h0c8.33,.35,14.79,7.01,14.42,14.88l-8.68,184.52c-.37,7.87-7.42,13.97-15.76,13.62Z"/><path class="l" d="M561.16,1001.41h0c-8.33,.45-15.46-5.57-15.93-13.43l-11.1-184.4c-.47-7.87,5.89-14.61,14.22-15.05h0c8.33-.45,15.46,5.57,15.93,13.43l11.1,184.4c.47,7.87-5.89,14.61-14.22,15.05Z"/><path class="q" d="M557.06,795.78h0c3.34-.18,6.21,2.23,6.4,5.39l11.27,187.16c.19,3.16-2.37,5.86-5.71,6.04h0c-3.34,.18-6.21-2.23-6.4-5.39l-11.27-187.16c-.19-3.16,2.37-5.86,5.71-6.04Z"/><path class="q" d="M58.77,794.28h0c-3.34-.18-6.21,2.23-6.4,5.39l-11.27,187.16c-.19,3.16,2.37,5.86,5.71,6.04h0c3.34,.18,6.21-2.23,6.4-5.39l11.27-187.16c.19-3.16-2.37-5.86-5.71-6.04Z"/><path class="r" d="M465.82,0H138.33c-9.24,0-16.73,7.08-16.73,15.8l-38.15,65.28h441.9L482.43,15.69c0-8.67-7.44-15.69-16.61-15.69Z"/><path class="t" d="M454.79,11.26H149.68c-8.61,0-15.59,6.03-15.59,13.46l-35.54,55.61H510.25l-39.98-55.71c0-7.38-6.93-13.37-15.48-13.37Z"/><path class="p" d="M89.27,904.06l-12.6-.49,.86-19.5,12.39,.48c2.26,.09,4.28,1.03,5.71,2.48s2.32,3.49,2.22,5.67l-.12,2.7-.06,1.36c-.18,4.21-3.95,7.48-8.41,7.31Z"/><path class="p" d="M527.16,905.56l12.6-.49-.86-19.5-12.39,.48c-2.26,.09-4.28,1.03-5.71,2.48s-2.32,3.49-2.22,5.67l.12,2.7,.06,1.36c.18,4.21,3.95,7.48,8.41,7.31Z"/><path class="r" d="M572.24,198.97c-15.1,216.48-30.2,432.97-45.3,649.45-2.1,30.17-2.48,103.75-50.87,130.64-30.04,16.69-67.28,9.4-92.19,1.5-46.63,.5-93.25,1-139.88,1.5-30.26,7.69-77.46,14.6-111.27-9.01-45.67-31.89-38.99-102.24-41.33-127.64L31.79,198.97H572.24Z"/><rect class="s" x="0" y="191.46" width="602.44" height="13.51"/><path class="s" d="M261.75,979.58c-.81-.23-1.53-.59-2.17-1.04-5.43-.39-10.98,.14-16.46,.53-1.32,.14-2.64,.24-3.98,.25-1.01,.05-2.02,.09-3.03,.11-1.27,.02-2.38-.19-3.33-.58-.51,.11-1.04,.18-1.59,.16h-.9c-1.31,0-2.53-.3-3.67-.86-.26,.02-.53,.03-.81,.02h-.45c-1.43,0-2.77-.35-4.01-1.03-.37-.27-.74-.54-1.11-.81-7.28-.5-12.33-4.07-13.6-13.03-25.8-181.98-66.57-537.9-28.61-764.33H92.64c-23.32,0-41.63,18.87-39.6,40.81l55.84,605.64c2.34,25.41-4.34,95.74,41.33,127.64,17.04,11.9,37.49,16.02,57.45,16.22,.12-.03,.26-.05,.38-.08,.6-.24,1.19-.48,1.79-.71,.06-.02,.12-.05,.19-.06,.9-.24,1.88-.33,2.82-.33,.17,0,.34,.02,.51,.03,.78-.27,1.65-.44,2.63-.45,2.37-.05,4.72-.2,7.06-.41,1.28-1.52,3.25-2.55,5.92-2.55,1.14,0,2.15,.2,3.04,.53,7.43-2.41,14.96-3.54,22.92-2.64,.6,.07,1.17,.23,1.71,.43,.8-.26,1.69-.42,2.69-.42,.72-.18,1.47-.35,2.17-.53,2.07-.44,4.22-.87,6.41-1.29-2.05-.24-4.09-.61-6.14-1.2Z"/><rect class="r" x="0" y="203.47" width="602.44" height="4.5"/><rect class="m" x="93.55" y="314.93" width="446" height="123.54"/><text class="o" transform="translate(190.88 401.79) scale(1.06 1)"><tspan x="0" y="0">plastic</tspan></text><g id="d" transform="translate(-9.1321 -4.2794)"><path id="e" class="n" d="M430.9,653.42l-64.47,33.82,30.67,56.51h-45.9v-31.46l-44.55,66.56,44.55,70.31v-32.05l48.61-.1,4.8-1.28,3.76-2.27,2.5-2.66,48.72-72.68,2.19-6.8,1.04-6.71v-6.8l-.83-5.52-31.09-58.87h0Z"/><path id="f" class="k" d="M395.53,743.85l44.76-.1,6.05-1.28,4.49-2.37,8.97-7.2,3.03-2.66"/><path id="g" class="n" d="M286.29,816.64l-.42-69.63-67.08-1.97,22.12-37.97,29,15.09-40.27-68.83-86.59,3.06,29.73,15.29-23.47,40.43-1.04,3.85v3.75l1.25,4.14,44.23,75.83,5.95,5.42,6.57,4.44,7.2,3.45,3.03,.99,69.79,2.66h0Z"/><path id="h" class="k" d="M219.43,743.75l-21.7,37.47-1.56,5.13-.31,3.55,2.82,13.21,.83,2.96"/><path id="i" class="n" d="M212.12,617.33l63.01,36.19,36.83-52.96,22.64,37.57-28.9,15.58,83.25,3.65,42.67-71.3-29.52,15.88-23.99-39.94-3.76-3.35-3.96-1.97-3.55-.79-91.18-4.04-8.76,2.07-8.14,3.45-7.72,5.03-38.91,54.93h0Z"/><path id="j" class="k" d="M312.79,601.65l-22.64-37.28-4.28-4.14-3.55-2.07-13.77-4.63-1.57-.49"/></g></g></g></svg>