<?xml version="1.0" encoding="utf-8"?>
<!-- Generator: Adobe Illustrator 26.2.1, SVG Export Plug-In . SVG Version: 6.00 Build 0)  -->
<svg version="1.1" id="Layer_1" xmlns="http://www.w3.org/2000/svg" xmlns:xlink="http://www.w3.org/1999/xlink" x="0px" y="0px"
	 viewBox="0 0 1920 1080" style="enable-background:new 0 0 1920 1080;" xml:space="preserve">
<style type="text/css">
	.st0{stroke:#047AC1;stroke-miterlimit:10;}
	.st1{fill:#28ED19;}
	.st2{fill:#009966;}
	.st3{fill:#0FF520;}
	.st4{stroke:#000000;stroke-miterlimit:10;}
	.st5{fill:#4D4D4D;stroke:#4D4D4D;stroke-miterlimit:10;}
	.st6{fill:#0FEF19;}
	.st7{fill:#1A1A1A;}
	.st8{fill:#FFFFFF;stroke:#000000;stroke-miterlimit:10;}
	.st9{fill:none;}
	.st10{font-family:'HWTArtz';}
	.st11{font-size:75.0813px;}
	.st12{letter-spacing:4.72;}
	
		.st13{fill-rule:evenodd;clip-rule:evenodd;fill:#FFFFFF;stroke:#000000;stroke-width:3.7541;stroke-linecap:round;stroke-linejoin:round;}
	.st14{fill:none;stroke:#000000;stroke-width:3.7541;stroke-linecap:round;stroke-linejoin:round;}
</style>
<path class="st0" d="M51.5,745.5"/>
<g>
	<path class="st1" d="M1263.58,239.44H680.01c-5.21,0-9.43-4.22-9.43-9.43v-20.17c0-5.21,4.22-9.43,9.43-9.43h583.57
		c5.21,0,9.43,4.22,9.43,9.43v20.17C1273.02,235.22,1268.79,239.44,1263.58,239.44z"/>
	<path class="st2" d="M1242.02,199.65H701.57v-39.59c0-22.09,17.91-40,40-40h460.45c22.09,0,40,17.91,40,40V199.65z"/>
	<path class="st3" d="M1241.22,200.4H767.54v-30.58c0-22.09,17.91-40,40-40h393.69c22.09,0,40,17.91,40,40V200.4z"/>
	<path class="st4" d="M725.97,1040.45L725.97,1040.45c-8.33-0.35-14.79-7.01-14.42-14.88l8.68-184.52
		c0.37-7.87,7.42-13.97,15.76-13.62h0c8.33,0.35,14.79,7.01,14.42,14.88l-8.68,184.52C741.35,1034.7,734.3,1040.8,725.97,1040.45z"
		/>
	<path class="st4" d="M1230.15,1040.39L1230.15,1040.39c-8.33,0.45-15.46-5.57-15.93-13.43l-11.1-184.4
		c-0.47-7.87,5.89-14.61,14.22-15.05l0,0c8.33-0.45,15.46,5.57,15.93,13.43l11.1,184.4
		C1244.84,1033.2,1238.47,1039.94,1230.15,1040.39z"/>
	<path class="st5" d="M1226.04,834.75L1226.04,834.75c3.34-0.18,6.21,2.23,6.4,5.39l11.27,187.16c0.19,3.16-2.37,5.86-5.71,6.04l0,0
		c-3.34,0.18-6.21-2.23-6.4-5.39l-11.27-187.16C1220.15,837.64,1222.7,834.93,1226.04,834.75z"/>
	<path class="st5" d="M727.75,833.25L727.75,833.25c-3.34-0.18-6.21,2.23-6.4,5.39l-11.27,187.16c-0.19,3.16,2.37,5.86,5.71,6.04
		l0,0c3.34,0.18,6.21-2.23,6.4-5.39l11.27-187.16C733.65,836.14,731.09,833.43,727.75,833.25z"/>
	<path class="st6" d="M1134.8,38.97H807.31c-9.24,0-16.73,7.08-16.73,15.8l-38.15,65.28h441.9l-42.92-65.4
		C1151.41,46,1143.98,38.97,1134.8,38.97z"/>
	<path class="st7" d="M1123.77,50.24H818.66c-8.61,0-15.59,6.03-15.59,13.46l-35.54,55.61h411.7l-39.98-55.71
		C1139.25,56.22,1132.32,50.24,1123.77,50.24z"/>
	<path class="st0" d="M758.26,943.03l-12.6-0.49l0.86-19.5l12.39,0.48c2.27,0.09,4.28,1.03,5.71,2.48c1.46,1.48,2.32,3.49,2.22,5.67
		c0,0-0.07,1.52-0.12,2.7c-0.03,0.75-0.06,1.36-0.06,1.36C766.48,939.93,762.72,943.2,758.26,943.03z"/>
	<path class="st0" d="M1196.15,944.53l12.6-0.49l-0.86-19.5l-12.39,0.48c-2.27,0.09-4.28,1.03-5.71,2.48
		c-1.46,1.48-2.32,3.49-2.22,5.67c0,0,0.07,1.52,0.12,2.7c0.03,0.75,0.06,1.36,0.06,1.36
		C1187.93,941.43,1191.69,944.71,1196.15,944.53z"/>
	<path class="st6" d="M1241.22,237.94c-15.1,216.48-30.2,432.97-45.3,649.45c-2.1,30.17-2.48,103.75-50.87,130.64
		c-30.04,16.69-67.28,9.4-92.19,1.5c-46.63,0.5-93.25,1-139.88,1.5c-30.26,7.69-77.46,14.6-111.27-9.01
		c-45.67-31.89-38.99-102.24-41.33-127.64c-19.87-215.48-39.74-430.97-59.61-646.45H1241.22z"/>
	<rect x="668.98" y="230.43" class="st2" width="602.44" height="13.51"/>
	<path class="st2" d="M930.73,1018.55c-0.81-0.23-1.53-0.59-2.17-1.04c-5.43-0.39-10.98,0.14-16.46,0.53
		c-1.32,0.14-2.64,0.24-3.98,0.25c-1.01,0.05-2.02,0.09-3.03,0.11c-1.27,0.02-2.38-0.19-3.33-0.58c-0.51,0.11-1.04,0.18-1.59,0.16
		h-0.9c-1.31,0-2.53-0.3-3.67-0.86c-0.26,0.02-0.53,0.03-0.81,0.02h-0.45c-1.43,0-2.77-0.35-4.01-1.03
		c-0.37-0.27-0.74-0.54-1.11-0.81c-7.28-0.5-12.33-4.07-13.6-13.03c-25.8-181.98-66.57-537.9-28.61-764.33h-85.39
		c-23.32,0-41.63,18.87-39.6,40.81l55.84,605.64c2.34,25.41-4.34,95.74,41.33,127.64c17.04,11.9,37.49,16.02,57.45,16.22
		c0.12-0.03,0.26-0.05,0.38-0.08c0.6-0.24,1.19-0.48,1.79-0.71c0.06-0.02,0.12-0.05,0.19-0.06c0.9-0.24,1.88-0.33,2.82-0.33
		c0.17,0,0.34,0.02,0.51,0.03c0.78-0.27,1.65-0.44,2.63-0.45c2.37-0.05,4.72-0.2,7.06-0.41c1.28-1.52,3.25-2.55,5.92-2.55
		c1.14,0,2.15,0.2,3.04,0.53c7.43-2.41,14.96-3.54,22.92-2.64c0.6,0.07,1.17,0.23,1.71,0.43c0.8-0.26,1.69-0.42,2.69-0.42
		c0.72-0.18,1.47-0.35,2.17-0.53c2.07-0.44,4.22-0.87,6.41-1.29C934.83,1019.51,932.79,1019.14,930.73,1018.55z"/>
	<rect x="668.98" y="242.44" class="st6" width="602.44" height="4.5"/>
	<g>
		<rect x="773.1" y="357.32" class="st8" width="418.05" height="120.13"/>
		<rect x="767.9" y="357.07" class="st9" width="427.86" height="120.07"/>
		<text transform="matrix(1.0586 0 0 1 785.1675 443.7642)" class="st4 st10 st11 st12">RECYCLABLE</text>
	</g>
	<g>
		
			<sodipodi:namedview  bordercolor="#666666" borderopacity="1" gridtolerance="10" guidetolerance="10" id="namedview10" objecttolerance="10" pagecolor="#ffffff" showgrid="false">
			</sodipodi:namedview>
		<g id="_x31_" transform="translate(-9.1321 -4.2794)">
			<path id="_x32_" class="st13" d="M1109.01,696.67l-64.47,33.82l30.67,56.51h-45.9v-31.46l-44.55,66.56l44.55,70.31v-32.05
				l48.61-0.1l4.8-1.28l3.76-2.27l2.5-2.66l48.72-72.68l2.19-6.8l1.04-6.71v-6.8l-0.83-5.52L1109.01,696.67L1109.01,696.67z"/>
			<path id="_x33_" class="st14" d="M1073.65,787.1l44.76-0.1l6.05-1.28l4.49-2.37l8.97-7.2l3.03-2.66"/>
			<path id="_x34_" class="st13" d="M964.41,859.89L964,790.26l-67.08-1.97l22.12-37.97l29,15.09l-40.27-68.83l-86.59,3.06
				l29.73,15.29l-23.47,40.43l-1.04,3.85v3.75l1.25,4.14l44.23,75.84l5.95,5.42l6.57,4.44l7.2,3.45l3.03,0.99L964.41,859.89
				L964.41,859.89z"/>
			<path id="_x35_" class="st14" d="M897.54,787l-21.7,37.47l-1.56,5.13l-0.31,3.55l2.82,13.21l0.83,2.96"/>
			<path id="_x36_" class="st13" d="M890.24,660.58l63.01,36.19l36.83-52.96l22.64,37.57l-28.9,15.58l83.25,3.65l42.67-71.3
				l-29.52,15.88l-23.99-39.94l-3.76-3.35l-3.96-1.97l-3.55-0.79l-91.18-4.04l-8.76,2.07l-8.14,3.45l-7.72,5.03L890.24,660.58
				L890.24,660.58z"/>
			<path id="_x37_" class="st14" d="M990.91,644.9l-22.64-37.28l-4.28-4.14l-3.55-2.07l-13.77-4.63l-1.57-0.49"/>
		</g>
	</g>
</g>
</svg>
