<?xml version="1.0" encoding="UTF-8"?><svg xmlns="http://www.w3.org/2000/svg" viewBox="0 0 866.65 493.18"><defs><style>.d{fill:none;}.d,.e{stroke:#000;stroke-miterlimit:10;stroke-width:14px;}.f{fill:#6a22ff;}.g{fill:#ff0048;}.h{fill:#bf2500;}.i{fill:#dd9fff;}.j{fill:#df00c9;}.k,.e{fill:#0a00b4;}</style></defs><g id="a"/><g id="b"><g id="c"><g><path class="e" d="M741.57,314.45l37.42-24.19c11.74-7.59,23.52-15.2,33.94-24.12,43.19-36.94,58.4-96.32,37.31-145.58-8.57-20.02-22.37-37.99-36.05-55.76-8.09-10.51-16.37-21.2-27.79-29.05-10.95-7.53-24.21-12.06-37.46-15.96-26.55-7.82-54.33-13.58-82.36-12.7-49.46,1.55-95.3,23.69-133.06,51.36-7.09,5.2-10.78,11.99-19.39,15.1-7.65,2.77-17.31,3.63-22.14,10.23-4.65,6.34-1.49,15.37,5.33,20.03,6.57,4.49,16.09,5.49,23.71,2.49l-10.66,9.17c-3.83,3.29-7.96,7.99-5.47,12.13,1.9,3.16,6.65,3.96,10.77,4.14,12.01,.5,24.15-1.27,35.3-5.17-7.15,5.88-14.33,12.37-16.86,20.61-3.47,11.29,3.75,24.31,16.1,29.04,14.21,5.44,30.56,.25,44.9-4.93l-11.86,24.08c-2.88,5.86-5.51,13.3-.56,18.01,2.93,2.78,7.61,3.54,11.95,3.73,11.57,.52,23.29-1.89,33.35-6.84-7.66,8.1-14.73,16.61-21.17,25.46-3.52,4.84-6.95,10.11-6.85,15.82,.17,10.06,11.7,17.76,23.25,18.99s22.99-2.31,33.9-5.8c-18.99,11.23-27.46,34.12-19.53,52.8,2.78,6.53,8.6,13.16,16.65,13.37,11.73,.31,17.94-12.3,28.68-16.38-8,5.24-16.12,10.59-22.06,17.6-5.93,7-9.47,16.03-7.09,24.47,.46,1.62,1.19,3.28,2.71,4.31,2.27,1.53,5.51,1.18,8.3,.56,19.03-4.22,28.85-15.75,37.61-29.79,3.17-5.07,.91-3.85,6.65-5.38,3.28-.88,7.45-.3,10.98-1.2,7.91-2.03,15.01-6.41,21.54-10.63Z"/><path class="d" d="M729.94,268.19c1.25,2.35,.53,5.4-1.27,7.95s-4.58,4.67-7.52,6.45c-1.49,.9-3.1,1.76-4.82,2.05-3.21,.55-6.02-.99-7.63-2.97-3.05-3.76-2.61-9.73,1.93-13.59s12.97-4.22,15.54-.19"/><path class="d" d="M599.86,80.62l-8.38,2.86c-5.5,1.88-12.48,3.54-16.73-.02-2.78-2.33-3.14-6.25-1.63-9.33s4.53-5.43,7.79-7.23c6.86-3.8,18.72-6.65,26.5-3.11,12.12,5.5,.82,13.99-7.54,16.84Z"/><path class="d" d="M633.03,316.16c-19.62,27.75-42.32,53.86-67.7,77.86-32.89,31.12-73.01,59.82-121.17,66.34-32.53,4.41-65.66-1.75-97.51-8.95-11.66-2.63-23.39-5.43-35.42-5.99-12.81-.6-25.58,1.33-38.21,3.26-26.96,4.12-55.41,8.84-75.86,24.57"/><path class="d" d="M647.05,274.19l-71.4,68.55c-17.1,16.41-34.42,33-55.6,45.36-21.18,12.35-46.94,20.24-72.25,17.18-25.91-3.13-48.25-17.1-73.2-23.9-27.85-7.59-57.79-5.98-86.93-4.3-42.46,2.46-85.17,4.94-126.51,13.68"/><path class="d" d="M626.69,272.44c-45.84,11.61-76.84,53.06-123.9,60.12-26.59,3.99-53.36-3.89-79.56-9.51-82.28-17.65-169.08-13.34-252.29,.65-6.86,1.15-13.92,2.45-19.67,5.89-12.16,7.28-15.3,22.06-26.52,30.39l5.12-3.16"/><path class="d" d="M601.73,260c-34.6,17.47-70.79,35.38-110.76,37.81-65.22,3.96-124.66-33.83-189.82-38.51-33.98-2.44-68.56,3.5-99.79,15.33-38.06,14.42-108.26,55-97.76,48.98"/><path class="d" d="M599.78,218.1c-19.75,6.64-38.67,13.65-59.4,19.11-17.12,3.9-33.35,7.01-50.47,7.79-24.33,.78-49.57,1.56-73-6.23-21.63-7.79-42.36-17.93-65.79-19.48-60.39-5.46-74.71-16.79-142.27,3.6-.85,.26-37.28,19.29-37.98,19.78-62.84,43.92-144.64,54.97-157.36,58.13"/><path class="d" d="M567.3,178.72c-11.53,11.64-23.69,23.36-41.05,28.27s-35.3,3.35-52.09-.77c-18.61-4.56-35.8-12.46-53.32-19.35s-36.04-12.37-55.05-15.99c-18.99-3.61-38.37-5.58-57.79-6.32-18.84-.73-37.56,.47-56.24-2.37-17.33-2.63-34.16-7.19-51.42-10.1-8.56-1.45-17.24-2.48-25.97-2.64-7.18-.13-15.48-.29-22.27,2-11.19,3.77-21.08,10.39-31.36,15.66-9.23,4.73-10.08,17.41-13.65,25.32-.91,2.01-1.96,4.03-3.49,5.75"/><path class="d" d="M530.07,153.26c-25.41,12.24-55.66,16.79-84.35,12.68-52.74-7.55-94.92-42.03-145.63-56.68-29.69-8.57-74.36,17.71-92.63-4.27-35.62-42.84-125.5,21.87-142.2,38.23"/><path class="d" d="M512.59,130.32c-32.17,9.07-68.59,4.11-97.65-10.87-29.06-14.98-50.9-39.35-63.4-66.54-3.4-7.38-6.17-15.48-3.95-23.19"/><path d="M72.65,142.21c-.29-.9-1.1-1.88-2.07-2.33-1.05-.48-2.31-.72-3.47-.39-.17,.05-.32,.11-.47,.17-.78-.63-1.79-1.03-2.95-.98-2.33,.09-4.64,1.72-4.51,3.9,.04,.63,.08,1.27,.12,1.9,.11,1.79,1.34,3.2,3.31,3.76,1.55,.44,3.46,.46,5,0,1.99-.6,3.34-1.56,4.59-3.01,.66-.75,.73-2.14,.45-3Z"/><path d="M107.37,191.69c-1.93-.89-4.48-.73-5.89,1.38-.05,.08-.11,.15-.16,.23-.42,.17-.8,.4-1.15,.7-1.54,1.32-2.61,2.91-3.28,4.69-.04,.11-.05,.22-.08,.33-6.04,6.62-13.97,11.8-23.18,14.88-2.4,.8-3.26,2.76-2.98,4.52-.27,2.76,3.09,5.74,6.7,3.9,7.28-3.72,14.36-7.69,21.21-11.98,6.24-3.91,10.2-7.3,12.39-13.9,.86-2.57-1.21-4.36-3.57-4.74Z"/><path d="M19.78,294.12c-1.33-.59-2.98-.52-4.46,.03-5.09,1.87-9.63,4.32-13.99,7.24-2.97,1.99-.56,7.05,3.19,6.65,7.97-.84,14.93-3.43,21-8,4.17-3.14-1.43-8.27-5.73-5.92Z"/><path d="M104.65,318.79c-.74,.66-1.5,1.29-2.27,1.91-.93-.54-2.32-1.16-3.53-.47-6.73,3.88-12.4,7.18-16.92,9.84,0,.21-.02,.43-.03,.64,1.16,.45-.25,5.21,1.8,5.93,4.68,1.64,19.29-7.04,23.24-9.03,4.9-2.47,.11,.19,4.08-3.32,4.06-3.59-2.31-9.1-6.37-5.51Z"/><path d="M131.58,356.56c-2.53-3.05-7.4-2.34-10.71-.78-2.56,1.21-4.55,3.13-6.23,5.18l-.24,.15c-2.63,1.67-2.93,5.3-.09,6.71,1.13,.71,2.61,1.03,3.99,.74,3.05,.03,5.95-.96,8.5-2.58,3.37-2.15,8.01-5.52,4.78-9.42Z"/><path d="M166.6,386l-.43,.12c-.54-.66-1.28-1.19-2.18-1.45-3.01-.85-5.58-.4-7.52,.83-9.28,1.78-18.06,5.05-25.98,9.67-2.82,1.64-2.98,5.11,0,6.73,5.6,3.04,11.51,.73,17.07-1.15l8.29-2.8c1.27,.26,2.7,.02,3.83-.61,2.01-.05,3.99-.81,5.63-2.13,.28-.22,.51-.46,.7-.69,1-.34,1.99-.67,2.99-1.01,5.28-1.78,3.21-9.12-2.4-7.52Z"/><path d="M204.95,466.86c-.91-1.3-2.6-2.11-4.79-1.5-11.03,3.07-20.16,9.89-24.76,19.15-.22,.44-.33,.91-.36,1.39-.47,.78-.88,1.62-1.23,2.52-1.4,3.59,3.35,5.61,6.62,4.4,5.08-1.88,8.4-5.73,12.25-8.99,4.31-3.63,9.01-6.81,14.06-9.64,3.91-2.19,1.74-6.98-1.8-7.34Z"/><path d="M355.44,16.22c.18-4.1-4.52-7.56-8.96-5.23-3.96,2.08-4.51,7.54-4.88,11.33-2.38,3.73-3.2,7.85-.54,12.27,.29,.48,.64,.86,1.03,1.15,.14,1.01,.29,2.03,.44,3.04,.75,4.9,9.77,4.96,9.01,0-.17-1.14-.34-2.28-.5-3.42,1.6-.42,2.94-1.6,3.05-3.58,.23-3.99,.46-7.97,.69-11.96,.31-1.2,.6-2.4,.66-3.6Z"/><path class="d" d="M704,327.57c-11.26-9.11-21.6-19.35-30.82-30.52-5.96-7.22-11.5-14.92-15.05-23.58-3.22-7.84-4.72-16.26-6.35-24.58-4.87-24.81-11.2-49.56-22.43-72.21-11.24-22.65-27.73-43.23-49.52-56.05-11.51-6.78-24.25-11.26-35.86-17.86-11.62-6.6-22.5-15.96-26.75-28.63"/><path class="j" d="M699.52,232.88c.03-.34,.02-.7-.02-1.09-.2-1.68-.4-3.36-.6-5.04-.31-2.63-2.17-4.21-4.19-4.66-1.97-4.51-8.92-2.36-9.46,2.46-.46,4.15-.92,8.29-1.39,12.44-.19,1.74,.66,3.1,1.93,3.95,.36,3.13,.91,6.22,1.71,9.29,.23,.9,.74,1.63,1.4,2.21,.3,5.3,.37,10.62,.22,15.96-.16,5.55,8.64,6.91,9.82,1.33,1.41-6.69,3.14-13.28,5.18-19.79,1.26-.79,2.25-2.1,2.47-3.94,.2-1.66,.4-3.32,.6-4.98,.29-1.33,.66-2.64,1.14-3.99,1.97-5.48-5.73-8.14-8.83-4.16Z"/><path class="i" d="M708.3,238.09c0-.44-.07-.87-.17-1.29-.01-.09-.02-.18-.04-.27-.99-5.76-4.45-13.63-11.26-13.75-4.09-.07-7.79,2.69-10.56,6.67-1.25,.91-2.34,2.11-3.15,3.45-2.95,4.9-3.25,10.87-1.66,16.26,.16,.53,.43,1.03,.77,1.48,.59,1.59,1.47,2.97,2.7,4.04,1.11,.97,2.45,1.44,3.78,1.4,.02,2.32,1.67,3.86,3.66,4.67l1.77,.73c1.98,.81,4.66-.54,5.65-2.3,.96-1.71,1.63-3.43,2.05-5.16,.08-.04,.17-.08,.25-.13,5.48-3.21,6.88-9.82,6.22-15.79Z"/><path class="f" d="M716.16,233.86c-2.18-2.56-5.21-4.02-8.48-4.82,.95-2.52,1.73-5.11,2.34-7.76,1.43-6.27-8.21-8.94-9.64-2.66-.77,3.4-1.84,6.6-3.22,9.69-7.31,.43-14.18,2.57-19.58,7.72-1.88,1.79-1.98,5.29,0,7.07,3.29,2.96,5.78,4.38,10.11,2.2,.31-.16,.61-.34,.9-.52,1.24,.81,2.78,1.23,4.65,1.04,1.5-.15,2.79-.75,3.93-1.61,.96,2.34,2.18,4.28,5.12,5.02,2.78,.7,5.84,.26,8.4-.97,5.15-2.48,9.86-9.26,5.48-14.4Z"/><path class="k" d="M771.87,109.91c-.33-6.17-1.73-12.06-5.01-17.44-3.39-5.56-10.76-6.34-14.06,0-.19,.36-.37,.72-.56,1.08-3.61-6.46-10.74-7.82-15.15-.42-.12-.1-.25-.2-.37-.3-2.58-2.07-5.72-2.53-8.45-1.09-2.65-10.88-13.72-13.33-17.94-2.18-8.4,22.24-13.03,45.79-14.58,71.36-.42,6.98,2.77,12.17,6.69,14.19-1.54,7.88-3.29,15.74-4.72,23.69,.01-2.78,.03-5.56,.04-8.34,.1-19.73-19.78-19.75-19.88,0,0,.56,0,1.12,0,1.68-1.52,.19-2.97,.75-4.35,1.6-5.01-2.13-11.26,1.51-12.76,10.36-.92,5.46-1.03,9.42,.15,14.8,.38,1.71,.88,3.2,1.47,4.51,1.31,8.53,2.93,17.39,5.23,25.59-.38,.11-.75,.26-1.1,.46-3.06-.93-6.67,.33-6.17,4.41,.06,.45,.13,.89,.19,1.33h-.01l.02,.06c.32,2.1,.79,4.11,1.43,6.06-.24,3.76,1.57,7.35,5.23,9,2.97,1.35,6.66-.36,7.48-3.12,.06,.03,.13,.07,.19,.1,1.13,1.97,2.34,3.81,3.67,5.47,3.54,4.41,7.63,4.45,10.96,2.12,2.07,2.25,5.88,2.77,7.75-.75,1.81-3.39,3.43-6.86,4.89-10.4,.16-.33,.31-.67,.47-1,1.52-3.08,3.62-4.42,6.16-6.64,1.19-1.05,2.24-2.21,3.21-3.43,1.49-.18,2.88-.94,3.57-2.36,.86-1.75,1.72-3.5,2.58-5.24,1.18-.22,2.26-.98,2.93-2.46,.46-1.03,.93-2.06,1.39-3.09,1.92-4.25-1.54-8.08-5.32-7.31-1.06-.26-2.16-.18-3.12,.35,1.06-2.14,2.19-3.95,3.44-5.69,1.03,1.4,2.29,2.61,3.81,3.57,1.83,1.16,3.66,2.32,5.49,3.47,2.98,1.88,7.63-.23,9.67-3.94,16.24-29.6,39.3-61.38,44.66-100.73,1.38-10.15-3.61-18.76-9.26-19.35Zm-27.8,47.94c-1.19,3.69-2.33,7.43-3.36,11.28,.19-1.01,.4-2.01,.59-3.02,1.07-3.15,2.09-6.34,3.07-9.56-.11,.43-.2,.87-.31,1.3Z"/><path class="k" d="M737.96,280.68c-9.4,3.72-18.94,7.03-28.62,9.9-.92-.4-2.04-.44-3.32,.09-2.16,.89-4.33,1.78-6.49,2.67-1.82,.75-2.87,2.16-3.24,3.68-1.29-.98-2.6-1.95-3.91-2.92-2.19-1.62-5.56-.35-6.84,1.79-1.51,2.52-.37,5.25,1.79,6.84,.21,.16,.42,.31,.63,.47,.24,.4,.56,.79,.96,1.16,4.82,4.5,9.64,8.99,14.46,13.49,4.7,4.39,11.79-2.67,7.07-7.07-.63-.59-1.27-1.18-1.9-1.77-.06-.22-.13-.44-.23-.66,4.91,.85,9.7-4.6,13.23-7.44,1.38-1.12,2.86-2.08,4.39-2.95,.48-.12,.97-.22,1.48-.31,1.56-.26,2.58-1.05,3.12-2.06,3.82-1.81,7.74-3.46,11.27-5.77,4.46-2.91,1.69-11.34-3.85-9.14Z"/><path class="k" d="M663.38,189.65c-.51-1.4-1.01-2.81-1.52-4.21-1.81-5.02-8.87-4.03-9.85-.02-1.05,.23-2,.79-2.69,1.67-1.34,.17-2.59,.91-3.35,2.43-.24,.48-.44,.95-.62,1.41-.21,.4-.38,.83-.47,1.34l-.15,.86c-.1,.53-.18,1.08-.24,1.67-.14,1.51,.46,2.7,1.41,3.53,.59,1.84,1.25,3.66,1.99,5.46,1.03,2.5,3.32,4.27,6.15,3.49,2.36-.65,4.53-3.64,3.49-6.15-.32-.78-.62-1.56-.92-2.35,1.54-.5,2.93-1.63,3.59-3.07,2.32-.91,4.05-3.6,3.16-6.06Z"/><path class="k" d="M590.94,107.24c-3.57-1.6-7.05-3.37-10.45-5.29-5.61-3.17-10.65,5.46-5.05,8.63,3.4,1.93,6.88,3.69,10.45,5.29,2.46,1.11,5.38,.71,6.84-1.79,1.25-2.14,.68-5.73-1.79-6.84Z"/><path class="k" d="M557.94,88.76c.07-1.09-.24-2.11-.81-2.97-.29-.76-.63-1.46-1-2.04-2.25-3.6-8.05-4.11-10.37-.38-.06-.07-.12-.12-.18-.19-1.8-2.02-5.24-1.83-7.07,0-2,2-1.8,5.05,0,7.07,3.66,4.11,14.68,11.07,18.79,4.04,.86-1.47,.97-3.52,.64-5.52Z"/><path d="M734.72,263.65c-1.23-2.1-4.69-3.45-6.84-1.79-3.44,2.65-7.26,4.43-11.63,4.79-6.37,.51-6.43,10.52,0,10,6.07-.49,11.83-2.41,16.68-6.15,2.13-1.65,3.28-4.3,1.79-6.84Z"/><path d="M602.49,62.84c-7.31,2.3-14.61,4.59-21.92,6.89-6.12,1.92-3.51,11.58,2.66,9.64,7.31-2.3,14.61-4.59,21.92-6.89,6.12-1.92,3.51-11.58-2.66-9.64Z"/><path class="h" d="M619.08,188.33c-.75-1.17-1.71-1.78-2.99-2.3-.43-.17-.87-.32-1.32-.44-.5-.54-1.1-.98-1.73-1.24-2.12-.89-5.18-.21-6.24,2.05-.9,1.91-1.62,3.83-1.9,5.93-.28,2.07,.03,3.89,1.79,5.26,1.6,1.24,3.78,1.38,5.55,.39,.05-.03,.09-.06,.13-.09,.38,0,.75,0,1.12-.06,2.86-.38,5.65-2.67,6.1-5.64,.2-1.32,.26-2.67-.5-3.85Z"/><path class="g" d="M632.36,198.45c-1.39-9.29-8.11-16.97-12.83-25.22-1.06-1.95-2.09-3.91-2.91-5.96-.2-.51-.4-1.02-.57-1.54-.06-.17-.12-.33-.19-.48-.37-4.34-7.94-5.62-10.01-.5-.13,.33-.28,.66-.42,.99-1.39,.06-2.71,.84-3.52,2.6-3.12,7.23-6.52,14.34-10.28,21.26-2.83,5.21-7.36,11.35-6.21,17.6,.31,1.7,1.92,3.01,3.49,3.49,.67,.2,1.35,.28,2.01,.28,4.81,1.51,11.21-.41,15.9-1.19,5.93-.99,11.87-2.04,17.69-3.56,4.17-1.09,8.63-2.49,7.85-7.76Z"/><path class="g" d="M525.01,93.5l-11.24-11.18c-1.68-1.67-3.7-1.77-5.35-1-.88-.06-1.82,.14-2.79,.71-.3,.18-.6,.35-.9,.53-.36,.21-.66,.46-.94,.72-6.46,2.31-12.99,7.42-8.19,14.32,2.45,3.53,6.78,4.54,10.81,4.94,5.45,.55,11.04,.54,16.4-.68,3.71-.85,4.79-5.79,2.21-8.36Z"/><path class="g" d="M558.32,114.63c-.08-1.03-.6-2.05-1.71-2.94-2.55-2.02-5.11-3.74-8.12-5-2.59-1.09-5.8-1.3-8.17-2.79-1.54-.91-3.04-.91-4.27-.37-1.36-.24-2.84,.11-4.13,1.36-4.25,4.13-9.01,7-14.55,9.05-4.15,1.53-6.97,3.04-8.71,7.28-1.05,2.55,1.16,5.44,3.49,6.15,6.65,2.02,13.64-.77,20.16-2.2,7.54-1.65,15.14-3.03,22.77-4.18,3.25-.49,4.14-3.74,3.25-6.38Z"/><path class="g" d="M609.04,154.35c-4.69-7.07-8.65-14.95-15.11-20.63-6.27-5.52-13.94-8.66-21.6-11.72-.63-.25-1.29-.31-1.93-.21-1.47-.64-3.18-.55-4.65,.79-.81,.2-1.61,.62-2.34,1.35-4.8,4.79-9.94,9.04-15.6,12.79-.58,.39-1.03,.83-1.38,1.32-5.2,4.74-10.57,11.4-9.71,18.83,.81,7.03,6.24,12.31,12.77,14.44,3.52,1.15,7.1,1.32,10.68,1.02,.14,.03,.26,.08,.41,.1,.44,.06,.89,.09,1.33,.14v.04c.06,0,.12-.01,.19-.02,15.31,1.57,31.43-5.32,45.14-11.38,2.38-1.05,3.16-4.78,1.79-6.84Z"/><path class="g" d="M647.7,240.47c-.83-6.64-2.93-12.92-5.14-19.21-.44-1.27-1.19-2.18-2.08-2.76,.83-4.33-4.7-8.67-8.31-4.64l-13.11,14.65c-3.97,4.43-8.45,8.82-10.94,14.31-1.88,4.15-2.89,9.25-.94,13.56,2.38,5.27,8.46,6.55,13.57,7.95,7.64,2.1,26.28,5.79,26.99-6.61,.32-5.64,.66-11.62-.04-17.24Z"/><path class="g" d="M674.31,306.65c-1.28-.99-2.64-2-4.01-3.04-.1-.14-.21-.28-.33-.41-5.45-6.09-9.95-12.96-13.25-20.44,.86-6.16-8.59-8.75-9.67-2.47-.02,.14-.05,.28-.08,.42-.18,.36-.33,.75-.43,1.19-1,.56-1.81,1.53-2.18,2.98-2.26,8.77-6.99,21.05-3.63,30,1.3,3.48,4.1,7.11,7.3,9.01,1.38,.82,2.61,1.15,3.77,1.16,1.08,.65,2.39,.91,3.72,.47,1.31-.43,2.38-1.04,3.37-1.71,2.83-.67,4.94-2.59,7.09-4.54,2.11-.85,4.06-1.4,5.83-3.53,.24-.28,.43-.57,.59-.87,2.92-1.34,5.07-5.76,1.91-8.22Z"/><path class="g" d="M698.47,322.68c-.06-.03-.12-.06-.18-.08-.32-.52-.7-1.01-1.19-1.43-.65-.56-1.37-1.05-2.21-1.29-.35-.1-2.74-.69-1.65-.07-1.7-.96-3.3-.88-4.58-.22-.69-.14-1.45-.13-2.28,.08-7.29,1.87-12.7,6.72-17.84,11.99-4.75,4.87-10.84,10.91-11.05,18.19-.08,2.86,.96,5.21,2.68,6.67,.66,.99,1.63,1.79,2.77,2.14,2.73,.84,5.36,.63,7.68-.53,.32-.09,.64-.21,.94-.35,4.52-2.09,8.53-6.3,12.48-9.33,3.38-2.59,6.6-5.29,9.32-8.55,3.09-2.81,5.94-6.02,7.1-9.33,.31-.88,.41-1.69,.36-2.46,.42-2.1-.4-4.59-2.35-5.45Z"/><path d="M708.83,324.61c-4.64-6.35-10.17-11.67-16.79-15.93-2.04-1.31-4.02-.91-5.41,.29-.41-.49-.9-.92-1.45-1.25,.23-1.7-.44-3.47-2.46-4.52-12.98-6.75-18.35-20.71-23.15-33.68-1.47-3.97-6.21-4.17-8.59-2.08-1.75-1.1-4.07-1.22-5.96,.67-1.52,1.51-3.03,3.23-4.46,5.08-.03-.26-.08-.52-.16-.77-.85-2.64-3.43-4.16-6.15-3.49-.4,.1-.81,.18-1.22,.27h-.03c-.17,.02-.33,.04-.5,.05-.9,.06-1.8,.03-2.7-.04-1.31-.11-2.59,.51-3.53,1.47-3.06,2.57-2.03,8.93,3.11,8.93,.72,0,1.35-.13,1.91-.35,1.87,.01,3.75-.23,5.57-.67-2.31,3.82-4.12,7.92-4.98,11.87-1.36,6.27,8.27,8.95,9.64,2.66,1.29-5.95,5.54-12.63,9.82-17.15,5.26,13.79,11.78,27.61,25.05,35.16-7.67,7.13-16.28,13.51-27.31,12.93-6.43-.34-6.41,9.66,0,10,14.77,.78,26.47-8.22,36.57-17.93,.35,.45,.78,.86,1.34,1.22,5.1,3.28,9.62,7.44,13.21,12.35,1.59,2.18,4.34,3.26,6.84,1.79,2.15-1.26,3.39-4.65,1.79-6.84Z"/><path d="M632.48,307.88c-2.5,0-4.03,1.52-4.59,3.37-2.62,2.75-1.47,8.61,3.46,8.61,2.5,0,4.03-1.52,4.59-3.37,2.62-2.75,1.47-8.61-3.46-8.61Z"/><path d="M652.33,220.76c-1.8-5.54-4.84-10.51-9.12-14.48-4.71-4.37-11.8,2.68-7.07,7.07,3.02,2.81,5.27,6.13,6.55,10.07,1.97,6.1,11.63,3.49,9.64-2.66Z"/><path d="M618.14,217.18c-.76-2.77-3.49-4.01-6.15-3.49-3.64,.71-7.28,1.25-10.96,1.63-.45-.13-.95-.21-1.49-.21-5.65,0-6.35,7.71-2.06,9.59,.77,.52,1.67,.81,2.63,.72,4.88-.46,9.74-1.15,14.55-2.09,2.65-.52,4.17-3.69,3.49-6.15Z"/><path d="M613.2,153.27c-.44,.25-.89,.51-1.34,.76-.92,.11-1.85,.47-2.71,1.18-.48,.39-.96,.78-1.46,1.18-4.27,2.44-8.63,5.09-12.3,8.26-2.69,1.43-5.46,2.64-8.3,3.49-8.15,2.46-16.96,3.39-25.32,4.91-6.32,1.15-3.64,10.79,2.66,9.64,.28-.05,.56-.1,.84-.15,.62,.29,1.34,.46,2.17,.46,1.49,0,2.64-.54,3.44-1.37,7.42-1.15,15.05-2.26,21.94-4.91,1.71,1.08,3.92,1.11,5.63-.95,.96-1.16,2.04-2.25,3.2-3.27,3.95-2.24,7.71-4.83,11.3-7.61,1.81-1.02,3.6-2.01,5.31-2.99,5.58-3.2,.55-11.84-5.05-8.63Z"/><path d="M568.6,110.61c-6.12-2.58-11.71-6.05-17.03-10-4.84-3.59-9.29-6.33-15.39-6.96-6.39-.66-6.35,9.34,0,10,5.53,.57,10.13,5.65,14.54,8.62,4.79,3.23,9.91,5.75,15.22,7.98,5.92,2.49,8.51-7.18,2.66-9.64Z"/><path d="M509.6,71.41c-4.73,1.67-9.52,2.68-14.53,2.91-6.41,.3-6.44,10.3,0,10,5.88-.27,11.63-1.31,17.19-3.27,6.03-2.12,3.43-11.79-2.66-9.64Z"/></g></g></g></svg>