<?xml version="1.0" encoding="UTF-8"?><svg version="1.1" xmlns="http://www.w3.org/2000/svg" xmlns:xlink="http://www.w3.org/1999/xlink" viewBox="0 0 1500 1500" width="1500" height="1500" x="0px" y="0px">
    
    
    <!-- ITEM 0 -->
    <g>
        <defs>
            <clipPath id="clip-path-id-viewbox-item-0">
                <rect x="0.0" y="0.0" width="706.292" height="600.0"/>
            </clipPath>
        </defs>
        <g transform="translate(1500.0 112.0) rotate(0.0 -750.0 637.5) scale(-2.123767506923482 2.125)">
            <g clip-path="url(#clip-path-id-viewbox-item-0)" transform="translate(-0.0 -0.0)">
                <defs><linearGradient id="linear-gradient-i0" x1="153.587" y1="-286.188" x2="250.333" y2="-286.188" gradientTransform="translate(0 792)" gradientUnits="userSpaceOnUse"><stop offset="0" stop-color="#c0ddfc"/><stop offset="0.996" stop-color="#fff"/></linearGradient><linearGradient id="linear-gradient-2-i0" x1="153.053" y1="-300.956" x2="153.053" y2="-198.713" gradientTransform="translate(0 792)" gradientUnits="userSpaceOnUse"><stop offset="0" stop-color="#9cbcba"/><stop offset="1" stop-color="#9cbcba" stop-opacity="0"/></linearGradient><linearGradient id="linear-gradient-3-i0" x1="41.277" y1="-268.388" x2="41.277" y2="-198.7" xlink:href="#linear-gradient-i0"/><linearGradient id="linear-gradient-4-i0" x1="281.495" y1="-224.015" x2="281.495" y2="-193.148" xlink:href="#linear-gradient-i0"/><linearGradient id="linear-gradient-5-i0" x1="104.745" y1="-249.143" x2="104.745" y2="-195.828" gradientTransform="translate(0 792)" gradientUnits="userSpaceOnUse"><stop offset="0" stop-color="#f48b94"/><stop offset="1" stop-color="#f4a9a6" stop-opacity="0"/></linearGradient><linearGradient id="linear-gradient-6-i0" x1="536.912" y1="-247.662" x2="536.912" y2="-196.982" xlink:href="#linear-gradient-5-i0"/><linearGradient id="linear-gradient-7-i0" x1="543.548" y1="-268.388" x2="543.548" y2="-196.578" xlink:href="#linear-gradient-i0"/><linearGradient id="linear-gradient-8-i0" x1="592.154" y1="-256.545" x2="592.154" y2="-194.21" xlink:href="#linear-gradient-2-i0"/></defs><title>background_ocean</title><g id="Layer_2-i0" data-name="Layer 2"><g id="Layer_1-2-i0" data-name="Layer 1"><g opacity="0.3"><path d="M703.923,2.3V597.631H2.3V2.3H703.923M706.218,0H0V599.926H706.218V0Z" fill="#c4ecfe"/><rect y="425.315" width="706.218" height="2.147" fill="#c4ecfe"/><rect y="339.378" width="706.218" height="2.147" fill="#c4ecfe"/><rect y="425.315" width="706.218" height="2.147" fill="#c4ecfe"/><rect y="511.177" width="706.218" height="2.147" fill="#c4ecfe"/><rect y="253.516" width="706.218" height="2.147" fill="#c4ecfe"/><rect y="167.58" width="706.218" height="2.147" fill="#c4ecfe"/><rect y="81.717" width="706.218" height="2.147" fill="#c4ecfe"/></g><path d="M250.333,599.926h-17.32c0-35.307-12.362-52.184-28.128-73.575-16.062-21.836-40.636-48.779-51.073-101.333a11.1,11.1,0,0,1,9.1-13.175h0a11.112,11.112,0,0,1,12.658,8.808c9.474,47.743,26.869,71.429,42.339,92.524C234.641,535.825,250.333,557.291,250.333,599.926Z" fill="url(#linear-gradient-i0)"/><path d="M210.955,599.926H189.119c0-24.2-36.713-55.811-87.046-87.787a14.976,14.976,0,0,1-4.812-20.281h0a15.019,15.019,0,0,1,20.948-4.959c20.429,12.953,37.75,26.054,51.739,39.082C197.113,551.369,210.955,576.24,210.955,599.926Z" fill="url(#linear-gradient-2-i0)"/><path d="M20.8,599.926H3.257c0-21.392,13.323-48.409,27.387-77.054,11.177-22.724,22.65-46.188,26.647-65.359a11.089,11.089,0,0,1,11.621-8.882h0a11.074,11.074,0,0,1,10.141,13.323c-4.59,22.058-21.318,46.706-33.087,70.688C33.6,557.735,20.8,583.716,20.8,599.926Z" fill="url(#linear-gradient-3-i0)"/><path d="M316.95,591.562a5.911,5.911,0,0,0-6.661-5.034l-5.626.815,4.663-3.331a5.894,5.894,0,0,0-6.809-9.623l-4.664,3.331,2.591-5.107a5.877,5.877,0,0,0-10.437-5.4l-2.59,5.108v-5.7a5.922,5.922,0,0,0-11.843,0v5.7l-2.591-5.108a5.877,5.877,0,0,0-10.437,5.4l2.591,5.107-4.663-3.331a5.894,5.894,0,0,0-6.81,9.623l4.663,3.331-5.625-.815a5.9,5.9,0,0,0-1.629,11.7l11.177,1.628v.074h39.156v-.148l10.733-1.554A5.874,5.874,0,0,0,316.95,591.562Z" fill="url(#linear-gradient-4-i0)"/><path d="M159.215,585.714a9.073,9.073,0,0,0-10.214-7.7l-8.661,1.259,7.106-5.108a9.026,9.026,0,1,0-10.436-14.73l-7.106,5.108,4-7.772a9.07,9.07,0,0,0-16.136-8.29l-4,7.772V547.52a9.031,9.031,0,0,0-18.061,0v8.735l-4-7.772a9.07,9.07,0,1,0-16.136,8.29l4,7.772-7.106-5.108a9.026,9.026,0,0,0-10.437,14.73l7.106,5.108-8.66-1.259a9.044,9.044,0,0,0-2.517,17.913l17.173,2.443v.074h60.177v-.222l16.506-2.369A8.91,8.91,0,0,0,159.215,585.714Z" fill="url(#linear-gradient-5-i0)"/><path d="M706.218,229.756c-19.541,0-33.235-14.434-49-31.162-17.173-18.209-36.64-38.786-68.764-46.04-17.246-3.923-29.978-12.288-38.786-25.537-7.772-11.695-11.843-25.611-16.062-40.266-5.922-20.43-12.065-41.525-29.016-57.291l5.033-5.4c18.5,17.173,24.945,39.3,31.089,60.7,8.216,28.423,15.4,53,49.444,60.7,34.345,7.772,54.627,29.237,72.465,48.186,14.656,15.47,27.239,28.868,43.672,28.868v7.254Z" fill="#f9d5ff"/><path d="M122.576,331.828c-24.649-11.843-31.9-32.494-39.6-54.256C76.018,257.883,68.838,237.6,48.335,220.5l4.737-5.7c22.058,18.357,29.9,40.636,36.861,60.326,7.476,21.243,13.99,39.526,35.826,50.111Z" fill="#f9d5ff"/><path d="M480.015,599.926H461.658c0-59.586,28.571-72.391,58.771-92.82,16.729-11.251,53.294-37.01,72.465-57.587a11.073,11.073,0,0,1,15.248-1.036h0a11.119,11.119,0,0,1,1.11,16.062c-21.243,22.8-62.028,47.816-79.052,59.289C501.11,543.523,480.015,557.735,480.015,599.926Z" fill="url(#linear-gradient-6-i0)"/><path d="M516.95,599.926H495.041c0-38.416,14.73-72.1,29.015-104.737,11.251-25.759,32.717-91.784,38.194-125.389a15.092,15.092,0,0,1,16.062-12.583h0a14.953,14.953,0,0,1,13.546,17.246c-6.218,37.9-36.492,104.589-47.965,130.792C530.052,536.862,516.95,566.765,516.95,599.926Z" fill="url(#linear-gradient-7-i0)"/><path d="M663.879,583.05a11.871,11.871,0,0,0-13.472-10.067l-11.4,1.628,9.4-6.661a11.892,11.892,0,0,0-13.768-19.393l-9.4,6.661L630.5,545a11.918,11.918,0,0,0-21.17-10.955l-5.255,10.215V532.717a11.917,11.917,0,1,0-23.834,0v11.547l-5.256-10.215A11.918,11.918,0,1,0,553.812,545l5.255,10.214-9.4-6.661A11.892,11.892,0,1,0,535.9,567.95l9.4,6.661-11.4-1.628a11.892,11.892,0,1,0-3.4,23.538l22.576,3.257v.148h1.036c.3,0,.592.074.962.074a3.6,3.6,0,0,0,.888-.074H628.5c.3,0,.592.074.888.074a4.556,4.556,0,0,0,.963-.074h1.924V599.7L653.96,596.6A12.056,12.056,0,0,0,663.879,583.05Z" fill="url(#linear-gradient-8-i0)"/></g></g>
            </g>
        </g>
    </g>
    
    <!-- ITEM 1 -->
    <g>
        <defs>
            <clipPath id="clip-path-id-viewbox-item-1">
                <rect x="0.0" y="0.0" width="502.403" height="626.033"/>
            </clipPath>
        </defs>
        <g transform="translate(520.0 297.0) rotate(20.664668587905112 276.5 345.0) scale(1.1007099877986397 1.102178319673244)">
            <g clip-path="url(#clip-path-id-viewbox-item-1)" transform="translate(-0.0 -0.0)">
                
<g>
	<path fill="#F48B94" d="M502.403,484.638c0,17.644-7.496,35.156-22.046,47.383c-3.781,3.159-7.823,5.794-12.046,7.922   c-13.355,6.694-28.495,8.2-42.554,4.73c-4.959-1.244-9.787-3.077-14.354-5.532c-5.417-2.913-10.459-6.678-14.943-11.277   c-0.491-0.491-3.83-4.403-7.447-8.642c-3.29-3.879-6.809-8.053-8.576-10.148c-0.72-0.867-1.162-1.375-1.162-1.375   c-12.275-14.616-23.159-30.312-32.505-46.859c-2.111-3.699-4.125-7.447-6.056-11.228c-5.925-11.522-11.097-23.405-15.549-35.615   l108.759-62.669c2.848,7.856,6.039,15.598,9.509,23.192c3.028,6.596,6.269,13.094,9.738,19.46c1.195,2.193,2.422,4.354,3.666,6.53   c1.097,1.899,2.226,3.797,3.372,5.679c5.859,9.657,12.243,19.002,19.117,28.004c2.799,3.633,5.679,7.234,8.625,10.753   C497.672,456.536,502.403,470.628,502.403,484.638z"/>
	<path fill="#F48B94" d="M174.227,421.969c-3.732,9.427-7.905,18.642-12.521,27.644c-1.931,3.781-3.961,7.529-6.056,11.228   c-9.362,16.547-20.246,32.243-32.505,46.859c0,0-4.828,5.728-9.378,11.081c-3.044,3.584-5.974,7.021-7.218,8.445   c-0.295,0.327-0.491,0.54-0.589,0.638c-10.475,10.753-24.076,16.94-38.168,18.315c-15.941,1.555-32.489-3.044-45.73-14.157   C7.496,519.795,0,502.282,0,484.638c0-7.005,1.195-14.027,3.601-20.753c2.39-6.727,6.007-13.159,10.851-18.937   c3.012-3.584,5.941-7.251,8.789-10.966v-0.016c9.689-12.652,18.38-26.024,25.991-39.985c3.47-6.367,6.727-12.864,9.755-19.46   c3.47-7.578,6.645-15.32,9.509-23.192C68.496,351.329,175.274,419.334,174.227,421.969z"/>
	<path fill="#F9D5FF" d="M174.222,421.964c-3.73,9.43-7.9,18.65-12.52,27.65c-1.93,3.78-3.96,7.53-6.05,11.23   c-9.36,16.54-20.25,32.24-32.51,46.86c0,0-4.82,5.72-9.37,11.08c-3.05,3.58-5.98,7.02-7.22,8.44c-0.3,0.33-0.49,0.54-0.59,0.64   c-10.48,10.75-24.08,16.94-38.17,18.31c-15.11,1.48-30.77-2.58-43.63-12.46c15.84-2.51,28.6-13.13,40.11-24.35   c25.162-24.505,43.239-54.561,58.453-86.213C135.499,396.575,175.272,419.334,174.222,421.964z"/>
	<path fill="#F9D5FF" d="M328.192,421.972c3.73,9.43,7.9,18.65,12.52,27.65c1.93,3.78,3.96,7.53,6.05,11.23   c9.36,16.54,20.25,32.24,32.51,46.86c0,0,4.82,5.72,9.37,11.08c3.05,3.58,5.98,7.02,7.22,8.44c0.3,0.33,0.49,0.54,0.59,0.64   c10.48,10.75,24.08,16.94,38.17,18.31c15.11,1.48,30.77-2.58,43.63-12.46c-15.84-2.51-28.6-13.13-40.11-24.35   c-26.647-25.95-45.347-58.127-61.116-91.829C365.401,392.698,327.142,419.342,328.192,421.972z"/>
	<path fill="#2B2B2B" d="M156.273,430.199l-29.699,45.642l-37.649-17.842c-22.037-10.442-38.739-29.579-46.109-52.823l0,0   c2.226-3.683,4.354-7.414,6.416-11.195c3.47-6.367,6.727-12.864,9.755-19.46c3.47-7.578,6.645-15.32,9.509-23.192L156.273,430.199z   "/>
	<path fill="#2B2B2B" d="M460.208,406.191v0.002c-2.808,8.863-7.039,17.095-12.447,24.421   c-10.022,13.576-24.185,23.53-40.133,29.043l-46.824,16.185l-14.075-33.325l87.193-91.187c2.848,7.856,6.039,15.598,9.509,23.192   c3.028,6.596,6.269,13.094,9.738,19.46c1.195,2.193,2.422,4.354,3.666,6.53C457.933,402.41,459.063,404.308,460.208,406.191z"/>
	<path fill="#F48B94" d="M346.522,617.714c-5.49,2.88-11.52,4.97-17.95,6.11c-11.18,1.96-22.19,0.79-32.12-2.89   c-6.71-2.48-12.92-6.1-18.36-10.66c-0.95-0.8-1.88-1.62-2.78-2.51c-9.3-8.77-15.94-20.52-18.33-34.09   c-0.28-1.59-0.58-3.19-0.89-4.78c-0.57-2.93-1.18-5.86-1.83-8.77c-2.93-13.19-6.73-26.17-11.33-38.84   c-0.31-0.87-0.63-1.72-0.96-2.57c-2.11-5.68-4.4-11.29-6.84-16.84c-4.5-10.17-9.56-20.12-15.13-29.77l-6.49-11.26l-17.836-30.886   l142.236-0.874c5.94,10.28,11.28,20.89,15.99,31.76c9.71,22.37,16.76,45.84,21.02,69.93c0,0,4.25,24.54,4.38,26.11   C381.892,582.344,368.412,606.254,346.522,617.714z"/>
	<path fill="#F48B94" d="M274.51,429.088l-17.598,30.486l-7.23,12.52c-5.36,9.26-10.22,18.77-14.55,28.51   c-2.62,5.86-5.06,11.8-7.3,17.81c-5,13.27-9.07,26.87-12.2,40.73c-0.73,3.23-1.4,6.45-2.04,9.71c-0.31,1.6-0.61,3.21-0.89,4.81   c-1.31,7.45-3.91,14.34-7.53,20.51c-2.86,4.91-6.38,9.34-10.4,13.21c-1.04,1.01-2.08,1.96-3.18,2.88   c-13.52,11.32-31.75,16.86-50.48,13.55c-1.33-0.24-2.65-0.51-3.94-0.83c-29.15-7.1-48.9-34.19-46.99-63.85   c0.03-0.76,0.1-1.51,0.18-2.26c0.15-1.57,4.4-26.11,4.4-26.11c0.77-4.33,1.62-8.64,2.57-12.93c4.41-20.01,10.77-39.52,19-58.26   c4.59-10.43,9.73-20.61,15.44-30.5L274.51,429.088z"/>
	<g>
		<path fill="#2B2B2B" d="M93.572,539.176c-0.084,0-0.17-0.007-0.256-0.021c-0.816-0.141-1.365-0.916-1.225-1.732l1.192-6.913    c0.799-4.495,1.668-8.866,2.583-12.998c4.424-20.071,10.847-39.768,19.091-58.539c4.636-10.534,9.855-20.845,15.515-30.646    c0.414-0.718,1.331-0.964,2.049-0.549c0.717,0.414,0.963,1.331,0.549,2.049c-5.604,9.708-10.774,19.92-15.366,30.354    c-8.165,18.59-14.526,38.097-18.908,57.979c-0.907,4.093-1.767,8.422-2.558,12.869l-1.19,6.902    C94.923,538.66,94.289,539.176,93.572,539.176z"/>
	</g>
	<path fill="#F9D5FF" d="M274.51,429.088l-17.598,30.486l-7.23,12.52c-5.36,9.26-10.22,18.77-14.55,28.51   c-2.62,5.86-5.06,11.8-7.3,17.81c-5,13.27-9.07,26.87-12.2,40.73c-0.73,3.23-1.4,6.45-2.04,9.71c-0.31,1.6-0.61,3.21-0.89,4.81   c-1.31,7.45-3.91,14.34-7.53,20.51c-2.86,4.91-6.38,9.34-10.4,13.21c-1.04,1.01-2.08,1.96-3.18,2.88   c-5.23,4.38-11.17,7.9-17.57,10.36c-8.73-10.36-13.52-23.91-12.61-38.15c0.03-0.66,0.09-1.32,0.16-1.97   c0.13-1.37,3.85-22.81,3.85-22.81c0.67-3.78,1.41-7.55,2.24-11.3c3.85-17.48,9.41-34.52,16.6-50.89c4.01-9.11,8.5-18,13.49-26.64   l28-48.51L274.51,429.088z"/>
	<path fill="#F9D5FF" d="M296.452,620.934c-6.71-2.48-12.92-6.1-18.36-10.66c-0.95-0.8-1.88-1.62-2.78-2.51   c-9.3-8.77-15.94-20.52-18.33-34.09c-0.28-1.59-0.58-3.19-0.89-4.78c-0.57-2.93-1.18-5.86-1.83-8.77   c-2.93-13.19-6.73-26.17-11.33-38.84c-0.31-0.87-0.63-1.72-0.96-2.57c-2.11-5.68-4.4-11.29-6.84-16.84   c-4.5-10.17-9.56-20.12-15.13-29.77l-6.49-11.26l-17.836-30.886l48.256-8.334l28,48.51c4.99,8.64,9.48,17.53,13.49,26.64   c7.19,16.37,12.75,33.41,16.6,50.89c0.83,3.75,1.57,7.52,2.24,11.3c0,0,3.72,21.44,3.85,22.81c0.07,0.65,0.13,1.31,0.16,1.97   C309.152,597.544,304.682,610.704,296.452,620.934z"/>
	<path fill="#2B2B2B" d="M356.406,465.809l-142.898-4.968l7.704,13.392l-104.873-13.391c4.583-10.426,9.722-20.606,15.434-30.492   l206.143-1.26C343.855,439.367,351.693,454.941,356.406,465.809z"/>
	<g>
		<path fill="#2B2B2B" d="M235.829,504.775c-0.576,0-1.125-0.333-1.373-0.894c-4.476-10.126-10.219-21.434-15.755-31.024    l-20.553-36.54c-0.414-0.718-0.168-1.635,0.549-2.049c0.718-0.414,1.635-0.168,2.049,0.549l20.552,36.54    c5.587,9.68,11.383,21.092,15.901,31.312c0.335,0.758-0.008,1.644-0.766,1.979C236.237,504.734,236.031,504.775,235.829,504.775z"/>
	</g>
	<g>
		<path fill="#2B2B2B" d="M364.907,491.657c-0.635,0-1.225-0.406-1.429-1.044c-6.742-21.126-15.782-41.576-26.87-60.781    c-0.415-0.718-0.168-1.635,0.549-2.049c0.719-0.414,1.635-0.168,2.049,0.549c11.196,19.392,20.324,40.039,27.131,61.369    c0.251,0.789-0.184,1.633-0.973,1.885C365.212,491.635,365.059,491.657,364.907,491.657z"/>
	</g>
	<path fill="#F48B94" d="M449.938,188.417l-6.509,157.255l-0.817,48.63c-1.278,30.911-26.709,55.303-57.638,55.303l-267.536,0   c-30.93,0-56.36-24.392-57.638-55.303l-0.817-48.622l-6.509-157.264c0-66.676,35.102-125.557,87.732-159.063   C169.387,10.778,203.941,0,240.89,0l20.632,0c36.929,0,71.455,10.758,100.616,29.315   C414.806,62.813,449.938,121.712,449.938,188.417z"/>
	<g>
		<g>
			<path fill="#2B2B2B" d="M305.592,359.671c-1.024,0-2.047-0.391-2.829-1.172l-41.667-41.667c-1.562-1.562-1.562-4.095,0-5.656     c1.563-1.563,4.095-1.563,5.657,0l41.667,41.667c1.562,1.562,1.562,4.095,0,5.656     C307.639,359.28,306.616,359.671,305.592,359.671z"/>
		</g>
		<g>
			<path fill="#2B2B2B" d="M263.925,359.671c-1.024,0-2.047-0.391-2.829-1.172c-1.562-1.562-1.562-4.095,0-5.656l41.667-41.667     c1.563-1.563,4.095-1.563,5.657,0c1.562,1.562,1.562,4.095,0,5.656l-41.667,41.667     C265.972,359.28,264.949,359.671,263.925,359.671z"/>
		</g>
	</g>
	<g>
		<g>
			<path fill="#2B2B2B" d="M143.558,359.671c-1.024,0-2.047-0.391-2.829-1.172l-41.667-41.667c-1.562-1.562-1.562-4.095,0-5.656     c1.563-1.563,4.095-1.563,5.657,0l41.667,41.667c1.562,1.562,1.562,4.095,0,5.656     C145.606,359.28,144.582,359.671,143.558,359.671z"/>
		</g>
		<g>
			<path fill="#2B2B2B" d="M101.891,359.671c-1.024,0-2.047-0.391-2.829-1.172c-1.562-1.562-1.562-4.095,0-5.656l41.667-41.667     c1.563-1.563,4.095-1.563,5.657,0c1.562,1.562,1.562,4.095,0,5.656l-41.667,41.667     C103.939,359.28,102.915,359.671,101.891,359.671z"/>
		</g>
	</g>
</g>

            </g>
        </g>
    </g>
    
    <!-- ITEM 2 -->
    <g>
        <defs>
            <clipPath id="clip-path-id-viewbox-item-2">
                <rect x="0.0" y="0.0" width="13.768" height="13.768"/>
            </clipPath>
        </defs>
        <g transform="translate(141.0 238.0) rotate(0.0 22.5 22.5) scale(3.2684485764090643 3.2684485764090643)">
            <g clip-path="url(#clip-path-id-viewbox-item-2)" transform="translate(-0.0 -0.0)">
                
<g>
	<path fill="#95B6FC" d="M6.884,13.768C3.109,13.768,0,10.659,0,6.884S3.109,0,6.884,0s6.884,3.109,6.884,6.884   S10.659,13.768,6.884,13.768z M6.884,2.221c-2.591,0-4.663,2.073-4.663,4.663s2.073,4.663,4.663,4.663s4.663-2.073,4.663-4.663   C11.547,4.293,9.474,2.221,6.884,2.221z"/>
</g>

            </g>
        </g>
    </g>
    
    <!-- ITEM 3 -->
    <g>
        <defs>
            <clipPath id="clip-path-id-viewbox-item-3">
                <rect x="0.0" y="0.0" width="573.394" height="928.148"/>
            </clipPath>
        </defs>
        <g transform="translate(502.0 58.0) rotate(20.664668587905112 316.0 511.5) scale(1.1022089523085348 1.102194908570616)">
            <g clip-path="url(#clip-path-id-viewbox-item-3)" transform="translate(-0.0 -0.0)">
                
<g>
	<path fill="#F9D5FF" d="M350.304,0H222.772c-15.467,0-28.051,12.583-28.051,28.051v48.204c0,12.346,8.268,23.405,20.077,26.884   c2.547,0.774,5.229,1.167,7.974,1.167l127.532,0c3.339,0,6.621-0.584,9.752-1.737l0.009-0.003   c10.939-4.062,18.289-14.634,18.289-26.31V28.051C378.355,12.583,365.771,0,350.304,0z"/>
	<g>
		<path fill="#F9D5FF" d="M100.645,928.149c-55.493,0-100.64-45.147-100.64-100.641v-11.727c0-7.36,2.865-14.28,8.067-19.485    c7.246-7.251,7.243-19.028,0.006-26.266c-5.207-5.206-8.074-12.13-8.074-19.493l0-82.06c0-7.359,2.865-14.279,8.067-19.485    l0.077-0.077c7.17-7.244,7.145-18.972-0.071-26.187c-5.208-5.208-8.075-12.131-8.075-19.494v-82.06    c0-7.36,2.865-14.28,8.067-19.485c7.246-7.251,7.243-19.028,0.006-26.266C2.867,470.217,0,463.294,0,455.931v-22.95    c0-57.379,21.027-112.575,59.21-155.42l143.015-160.495l6.72,5.987L65.93,283.549C29.218,324.744,9,377.813,9,432.981v22.95    c0,4.96,1.931,9.622,5.438,13.13c10.746,10.745,10.749,28.231,0.008,38.979c-3.515,3.518-5.444,8.179-5.444,13.136v82.06    c0,4.959,1.932,9.622,5.438,13.13c10.746,10.744,10.75,28.23,0.008,38.979l-0.076,0.076c-3.463,3.499-5.369,8.133-5.369,13.059    l0,82.06c0,4.96,1.931,9.623,5.438,13.13c10.745,10.745,10.749,28.231,0.007,38.979c-3.515,3.518-5.444,8.179-5.444,13.136v11.727    c0,50.531,41.109,91.641,91.64,91.641l372.104-0.001c50.53,0,91.64-41.109,91.64-91.64v-11.728c0-4.94-1.917-9.587-5.398-13.089    l-0.046-0.046c-10.74-10.751-10.736-28.236,0.008-38.979c3.507-3.506,5.438-8.169,5.438-13.129v-82.06    c0-4.957-1.93-9.618-5.433-13.124l-0.077-0.079c-10.675-10.683-10.671-28.169,0.074-38.912c3.507-3.506,5.438-8.169,5.438-13.129    v-82.06c0-4.957-1.93-9.617-5.433-13.124l-0.077-0.079c-10.675-10.683-10.671-28.168,0.074-38.912    c3.507-3.506,5.438-8.168,5.438-13.129v-22.949c0-55.169-20.218-108.238-56.93-149.432L364.449,123.053l6.72-5.987    l143.015,160.495c38.182,42.844,59.21,98.04,59.21,155.42v22.949c0,7.365-2.868,14.288-8.075,19.494    c-7.236,7.235-7.239,19.013-0.005,26.253l0.077,0.079c5.136,5.139,8.001,12.059,8.001,19.418v82.06    c0,7.364-2.868,14.287-8.074,19.493c-7.237,7.236-7.24,19.014-0.005,26.254l0.077,0.079c5.136,5.138,8.001,12.058,8.001,19.418    v82.06c0,7.363-2.868,14.287-8.074,19.493c-7.229,7.229-7.239,18.989-0.027,26.232l0.033,0.032    c5.202,5.206,8.067,12.126,8.067,19.485v11.728c0,55.493-45.147,100.64-100.64,100.64L100.645,928.149z"/>
	</g>
	<g>
		<path fill="#F9D5FF" d="M372.502,125.145H200.574V72.133h171.927V125.145z M209.574,116.145h153.927V81.133H209.574V116.145z"/>
	</g>
</g>

            </g>
        </g>
    </g>
    
    <!-- ITEM 4 -->
    <g>
        <defs>
            <clipPath id="clip-path-id-viewbox-item-4">
                <rect x="0.0" y="0.0" width="0.0" height="0.0"/>
            </clipPath>
        </defs>
        <g transform="translate(0.0 0.0) rotate(0.0 0.5 0.5) scale(Infinity Infinity)">
            <g clip-path="url(#clip-path-id-viewbox-item-4)" transform="translate(-0.0 -0.0)">
                
            </g>
        </g>
    </g>
    
    <!-- ITEM 5 -->
    <g>
        <defs>
            <clipPath id="clip-path-id-viewbox-item-5">
                <rect x="0.0" y="0.0" width="38.786" height="60.03"/>
            </clipPath>
        </defs>
        <g transform="translate(645.0 1134.0) rotate(40.9320279950964 52.5 83.0) scale(2.707162378177693 2.7652840246543393)">
            <g clip-path="url(#clip-path-id-viewbox-item-5)" transform="translate(-0.0 -0.0)">
                <title>bubbles_1</title><g id="Layer_2-i3" data-name="Layer 2"><g id="Layer_1-2-i3" data-name="Layer 1"><path d="M12.065,24.13A12.065,12.065,0,1,1,24.13,12.065,12.067,12.067,0,0,1,12.065,24.13Zm0-21.909a9.845,9.845,0,1,0,9.845,9.844A9.887,9.887,0,0,0,12.065,2.221Z" fill="#95b6fc"/><path d="M31.9,60.03a6.884,6.884,0,1,1,6.884-6.884A6.918,6.918,0,0,1,31.9,60.03Zm0-11.547a4.663,4.663,0,1,0,4.664,4.663A4.644,4.644,0,0,0,31.9,48.483Z" fill="#95b6fc"/></g></g>
            </g>
        </g>
    </g>
    
    <!-- ITEM 6 -->
    <g>
        <defs>
            <clipPath id="clip-path-id-crop-item-6">
                
          <g transform="scale(0.39762583518930955 0.40143430656934304)">
          <rect x="0.0" y="61.0" width="448.0" height="212.0"/>
          </g>
        
            </clipPath>
            
            <clipPath id="clip-path-id-viewbox-item-6">
                <rect x="0.0" y="0.0" width="178.534" height="109.993"/>
            </clipPath>
        </defs>
        <g clip-path="url(#clip-path-id-crop-item-6)" transform="translate(627.0 317.0) rotate(165.0686465113664 224.5 137.0) scale(2.514927128726181 2.4910676133935796)">
            <g clip-path="url(#clip-path-id-viewbox-item-6)" transform="translate(-0.0 -0.0)">
                <title>bubbles_3</title><g id="Layer_2-i4" data-name="Layer 2"><g id="Layer_1-2-i4" data-name="Layer 1"><path d="M61.14,19.393a9.7,9.7,0,1,1,9.7-9.7A9.73,9.73,0,0,1,61.14,19.393Zm0-17.172A7.476,7.476,0,1,0,68.616,9.7,7.455,7.455,0,0,0,61.14,2.221Z" fill="#95b6fc"/><path d="M6.884,79.127a6.884,6.884,0,0,1,0-13.768,6.884,6.884,0,0,1,0,13.768Zm0-11.547a4.663,4.663,0,1,0,4.663,4.663A4.643,4.643,0,0,0,6.884,67.58Z" fill="#95b6fc"/><path d="M171.651,109.993a6.884,6.884,0,1,1,6.883-6.884A6.919,6.919,0,0,1,171.651,109.993Zm0-11.547a4.663,4.663,0,1,0,4.663,4.663A4.644,4.644,0,0,0,171.651,98.446Z" fill="#95b6fc"/></g></g>
            </g>
        </g>
    </g>
    
    <!-- ITEM 7 -->
    <g>
        <defs>
            <clipPath id="clip-path-id-viewbox-item-7">
                <rect x="0.0" y="0.0" width="13.768" height="13.768"/>
            </clipPath>
        </defs>
        <g transform="translate(959.0 488.0) rotate(0.0 22.5 22.5) scale(3.2684485764090643 3.2684485764090643)">
            <g clip-path="url(#clip-path-id-viewbox-item-7)" transform="translate(-0.0 -0.0)">
                
<g>
	<path fill="#ffffff" d="M6.884,13.768C3.109,13.768,0,10.659,0,6.884S3.109,0,6.884,0s6.884,3.109,6.884,6.884   S10.659,13.768,6.884,13.768z M6.884,2.221c-2.591,0-4.663,2.073-4.663,4.663s2.073,4.663,4.663,4.663s4.663-2.073,4.663-4.663   C11.547,4.293,9.474,2.221,6.884,2.221z"/>
</g>

            </g>
        </g>
    </g>
    
    <!-- ITEM 8 -->
    <g>
        <defs>
            <clipPath id="clip-path-id-viewbox-item-8">
                <rect x="0.0" y="0.0" width="97.631" height="64.636"/>
            </clipPath>
        </defs>
        <g transform="translate(1407.0 214.0) rotate(0.0 -104.0 68.5) scale(-2.130470854544151 2.1195618540751284)">
            <g clip-path="url(#clip-path-id-viewbox-item-8)" transform="translate(-0.0 -0.0)">
                <defs><linearGradient id="linear-gradient-i6" x1="-2949.649" y1="-759.623" x2="-2924.483" y2="-759.623" gradientTransform="matrix(-1, 0, 0, 1, -2924.483, 792)" gradientUnits="userSpaceOnUse"><stop offset="0" stop-color="#ffe0c2"/><stop offset="0.401" stop-color="#7aaefc"/><stop offset="0.591" stop-color="#b8c1fc"/><stop offset="1" stop-color="#d2d4d4"/></linearGradient><linearGradient id="linear-gradient-2-i6" x1="-3018.246" y1="-759.682" x2="-2949.649" y2="-759.682" xlink:href="#linear-gradient-i6"/></defs><title>fish_2</title><g id="Layer_2-i6" data-name="Layer 2"><g id="Layer_1-2-i6" data-name="Layer 1"><path d="M9.1,48.439,25.167,32.377,9.1,16.315A5.346,5.346,0,0,0,0,20.09V44.664A5.346,5.346,0,0,0,9.1,48.439Z" fill="url(#linear-gradient-i6)"/><path d="M25.167,32.377,42.635,56.063a21.161,21.161,0,0,0,31.976,2.369L88.823,44.22a16.842,16.842,0,0,0,0-23.834L74.611,6.174A21.218,21.218,0,0,0,42.635,8.543Z" fill="url(#linear-gradient-2-i6)"/><circle cx="61.214" cy="32.377" r="17.098" fill="#fff"/><circle cx="61.214" cy="32.377" r="11.103" fill="#2b2b2b"/><path d="M90.155,43.48h0A7.455,7.455,0,0,0,97.631,36V28.676A7.455,7.455,0,0,0,90.155,21.2h0a7.455,7.455,0,0,0-7.476,7.476V36A7.456,7.456,0,0,0,90.155,43.48Z" fill="#f48b94"/><path d="M93.93,35.56H92.746a3.183,3.183,0,1,1,0-6.366H93.93a3.183,3.183,0,0,1,0,6.366Z" fill="#2b2b2b"/></g></g>
            </g>
        </g>
    </g>
    
    <!-- ITEM 9 -->
    <g>
        <defs>
            <clipPath id="clip-path-id-viewbox-item-9">
                <rect x="0.0" y="0.0" width="83.642" height="55.284"/>
            </clipPath>
        </defs>
        <g transform="translate(319.0 623.0) rotate(0.0 -116.5 77.0) scale(-2.7856818344850676 2.785616091455032)">
            <g clip-path="url(#clip-path-id-viewbox-item-9)" transform="translate(-0.0 -0.0)">
                <defs><linearGradient id="linear-gradient-i7" x1="62.06" y1="-764.324" x2="83.599" y2="-764.324" gradientTransform="translate(0 792)" gradientUnits="userSpaceOnUse"><stop offset="0" stop-color="#77879d"/><stop offset="0.409" stop-color="#fdbb6d"/><stop offset="0.499" stop-color="#fdbb9f"/><stop offset="0.599" stop-color="#d1d2d1"/><stop offset="1" stop-color="#feceaa"/></linearGradient><linearGradient id="linear-gradient-2-i7" x1="3.257" y1="-764.358" x2="62.028" y2="-764.358" xlink:href="#linear-gradient-i7"/></defs><title>fish_1</title><g id="Layer_2-i7" data-name="Layer 2"><g id="Layer_1-2-i7" data-name="Layer 1"><path d="M75.87,41.437,62.1,27.67,75.87,13.9a4.549,4.549,0,0,1,7.772,3.183v21.1A4.545,4.545,0,0,1,75.87,41.437Z" fill="url(#linear-gradient-i7)"/><path d="M62.028,27.67,47,47.951a18.187,18.187,0,0,1-27.387,2.073L7.476,37.884a14.473,14.473,0,0,1,0-20.429L19.615,5.316A18.083,18.083,0,0,1,47,7.388Z" fill="url(#linear-gradient-2-i7)"/><circle cx="31.162" cy="27.67" r="14.656" fill="#fff"/><circle cx="31.162" cy="27.67" r="9.548" fill="#2b2b2b"/><path d="M6.366,37.218h0A6.366,6.366,0,0,1,0,30.853V24.561A6.366,6.366,0,0,1,6.366,18.2h0a6.365,6.365,0,0,1,6.365,6.366v6.292A6.318,6.318,0,0,1,6.366,37.218Z" fill="#f48b94"/><path d="M4.145,30.408H3.109A2.732,2.732,0,0,1,.37,27.67a2.687,2.687,0,0,1,2.739-2.739H4.145a2.739,2.739,0,1,1,0,5.477Z" fill="#2b2b2b"/></g></g>
            </g>
        </g>
    </g>
    
    <!-- ITEM 10 -->
    <g>
        <defs>
            <clipPath id="clip-path-id-viewbox-item-10">
                <rect x="0.0" y="0.0" width="13.768" height="13.768"/>
            </clipPath>
        </defs>
        <g transform="translate(271.0 110.0) rotate(0.0 17.5 17.5) scale(2.5421266705403833 2.5421266705403833)">
            <g clip-path="url(#clip-path-id-viewbox-item-10)" transform="translate(-0.0 -0.0)">
                
<g>
	<path fill="#95B6FC" d="M6.884,13.768C3.109,13.768,0,10.659,0,6.884S3.109,0,6.884,0s6.884,3.109,6.884,6.884   S10.659,13.768,6.884,13.768z M6.884,2.221c-2.591,0-4.663,2.073-4.663,4.663s2.073,4.663,4.663,4.663s4.663-2.073,4.663-4.663   C11.547,4.293,9.474,2.221,6.884,2.221z"/>
</g>

            </g>
        </g>
    </g>
    
</svg>