<?xml version="1.0" encoding="utf-8"?>
<!-- Generator: Adobe Illustrator 26.2.1, SVG Export Plug-In . SVG Version: 6.00 Build 0)  -->
<svg version="1.1" id="Layer_1" xmlns="http://www.w3.org/2000/svg" xmlns:xlink="http://www.w3.org/1999/xlink" x="0px" y="0px"
	 viewBox="0 0 1920 1080" style="enable-background:new 0 0 1920 1080;" xml:space="preserve">
<style type="text/css">
	.st0{fill:#FF1D25;}
	.st1{fill:#FFA500;}
	.st2{stroke:#000000;stroke-miterlimit:10;}
	.st3{fill:#4D4D4D;stroke:#4D4D4D;stroke-miterlimit:10;}
	.st4{fill:#1A1A1A;}
	.st5{stroke:#047AC1;stroke-miterlimit:10;}
	.st6{fill:#FF931E;}
	.st7{fill:#FFFFFF;stroke:#000000;stroke-miterlimit:10;}
	.st8{fill:none;}
	.st9{font-family:'HWTArtz';}
	.st10{font-size:75.0659px;}
	.st11{letter-spacing:5;}
	
		.st12{fill-rule:evenodd;clip-rule:evenodd;fill:#FFFFFF;stroke:#000000;stroke-width:3.7541;stroke-linecap:round;stroke-linejoin:round;}
	.st13{fill:none;stroke:#000000;stroke-width:3.7541;stroke-linecap:round;stroke-linejoin:round;}
</style>
<g>
	<path class="st0" d="M1294.48,239.43H744.35c-5.21,0-9.43-4.22-9.43-9.43v-20.17c0-5.21,4.22-9.43,9.43-9.43h550.13
		c5.21,0,9.43,4.22,9.43,9.43v20.17C1303.92,235.2,1299.69,239.43,1294.48,239.43z"/>
	<path class="st1" d="M1274.64,199.64H764.19v-39.57c0-22.09,17.91-40,40-40h430.45c22.09,0,40,17.91,40,40V199.64z"/>
	<path class="st0" d="M1273.89,200.39H826.5v-30.56c0-22.09,17.91-40,40-40h367.39c22.09,0,40,17.91,40,40V200.39z"/>
	<path class="st2" d="M787.23,1040.27L787.23,1040.27c-7.87-0.35-13.96-7.01-13.62-14.88l8.2-184.48
		c0.35-7.87,7.01-13.96,14.88-13.62h0c7.87,0.35,13.96,7.01,13.62,14.88l-8.2,184.48C801.77,1034.53,795.1,1040.62,787.23,1040.27z"
		/>
	<path class="st2" d="M1268.18,1039.94l-9.51,0.54c-5.24,0.3-9.73-3.71-10.02-8.95l-11.03-193.87c-0.3-5.24,3.71-9.73,8.95-10.02
		l9.51-0.54c5.24-0.3,9.73,3.71,10.02,8.95l11.03,193.87C1277.43,1035.15,1273.42,1039.64,1268.18,1039.94z"/>
	<path class="st3" d="M1257.64,834.73l3.82-0.22c2.1-0.12,3.9,1.49,4.02,3.59l10.86,190.94c0.12,2.1-1.49,3.9-3.59,4.02l-3.82,0.22
		c-2.1,0.12-3.9-1.49-4.02-3.59l-10.86-190.94C1253.93,836.65,1255.54,834.85,1257.64,834.73z"/>
	<path class="st3" d="M790.83,833.22l-3.82-0.22c-2.1-0.12-3.9,1.49-4.02,3.59l-10.86,190.94c-0.12,2.1,1.49,3.9,3.59,4.02
		l3.82,0.22c2.1,0.12,3.9-1.49,4.02-3.59l10.86-190.94C794.54,835.15,792.93,833.34,790.83,833.22z"/>
	<path class="st0" d="M1173.38,39H864.07c-8.73,0-15.8,7.07-15.8,15.8l-36.03,65.27h417.37l-40.54-65.38
		C1189.07,46.02,1182.04,39,1173.38,39z"/>
	<path class="st4" d="M1162.96,50.26H874.79c-8.13,0-14.72,6.03-14.72,13.46l-33.57,55.6h388.84l-37.77-55.7
		C1177.57,56.24,1171.03,50.26,1162.96,50.26z"/>
	<path class="st5" d="M638.08,848.21"/>
	<path class="st5" d="M817.73,942.87l-11.9-0.49l0.81-19.5l11.7,0.48c2.14,0.09,4.04,1.03,5.4,2.48c1.38,1.48,2.19,3.49,2.1,5.67
		c0,0-0.06,1.52-0.11,2.7c-0.03,0.75-0.06,1.36-0.06,1.36C825.5,939.77,821.94,943.05,817.73,942.87z"/>
	<path class="st5" d="M1231.32,944.37l11.9-0.49l-0.81-19.5l-11.7,0.48c-2.14,0.09-4.04,1.03-5.4,2.48
		c-1.38,1.48-2.19,3.49-2.1,5.67c0,0,0.06,1.52,0.11,2.7c0.03,0.75,0.06,1.36,0.06,1.36
		C1223.55,941.28,1227.1,944.55,1231.32,944.37z"/>
	<path class="st0" d="M1273.89,237.92c-14.26,216.44-28.53,432.88-42.79,649.32c-1.99,30.17-2.34,103.73-48.04,130.61
		c-28.37,16.69-63.54,9.39-87.08,1.5c-44.04,0.5-88.08,1-132.12,1.5c-28.58,7.69-73.16,14.6-105.09-9.01
		c-43.14-31.88-36.82-102.22-39.03-127.61c-18.77-215.44-37.53-430.88-56.3-646.32H1273.89z"/>
	<rect x="733.42" y="230.42" class="st6" width="569" height="13.51"/>
	<path class="st6" d="M980.64,1018.38c-0.76-0.23-1.44-0.59-2.05-1.04c-5.13-0.39-10.37,0.14-15.54,0.53
		c-1.25,0.14-2.5,0.24-3.76,0.25c-0.96,0.05-1.91,0.09-2.86,0.11c-1.2,0.02-2.25-0.19-3.15-0.58c-0.48,0.11-0.98,0.18-1.5,0.16
		h-0.85c-1.23,0-2.39-0.3-3.47-0.86c-0.25,0.02-0.5,0.03-0.76,0.02h-0.42c-1.35,0-2.62-0.35-3.79-1.02
		c-0.35-0.27-0.7-0.54-1.05-0.81c-6.88-0.5-11.65-4.07-12.85-13.02c-24.37-181.94-62.88-537.79-27.02-764.17h-80.65
		c-22.02,0-39.32,18.87-37.41,40.81l52.74,605.51c2.21,25.4-4.1,95.72,39.03,127.61c16.1,11.9,35.41,16.02,54.26,16.22
		c0.11-0.03,0.24-0.05,0.36-0.08c0.56-0.24,1.13-0.48,1.69-0.71c0.06-0.02,0.12-0.05,0.18-0.06c0.85-0.24,1.77-0.33,2.66-0.33
		c0.16,0,0.32,0.02,0.48,0.03c0.74-0.27,1.56-0.44,2.48-0.45c2.23-0.05,4.45-0.2,6.67-0.41c1.21-1.52,3.07-2.55,5.59-2.55
		c1.08,0,2.03,0.2,2.87,0.53c7.02-2.41,14.13-3.54,21.64-2.64c0.57,0.07,1.1,0.23,1.62,0.43c0.75-0.26,1.6-0.42,2.54-0.42
		c0.68-0.18,1.38-0.35,2.05-0.53c1.95-0.44,3.98-0.87,6.06-1.29C984.51,1019.34,982.57,1018.96,980.64,1018.38z"/>
	<rect x="733.42" y="242.43" class="st0" width="569" height="4.5"/>
	<g>
		<rect x="831.75" y="357.28" class="st7" width="394.85" height="120.11"/>
		<rect x="826.84" y="357.04" class="st8" width="404.11" height="120.05"/>
		<text transform="matrix(1 0 0 1 896.2573 443.7085)" class="st2 st9 st10 st11">ORGANIC</text>
	</g>
	<g>
		
			<sodipodi:namedview  bordercolor="#666666" borderopacity="1" gridtolerance="10" guidetolerance="10" id="namedview10" objecttolerance="10" pagecolor="#ffffff" showgrid="false">
			</sodipodi:namedview>
		<g id="_x31__00000140004801908216440300000001559137378926171802_" transform="translate(-9.1321 -4.2794)">
			<path id="_x32__00000094587521856912905470000016453844037570447509_" class="st12" d="M1168.55,701.4l-60.89,33.82l28.97,56.49
				h-43.35v-31.45l-42.07,66.55l42.07,70.3v-32.04l45.92-0.1l4.53-1.28l3.55-2.27l2.36-2.66l46.01-72.66l2.07-6.8l0.99-6.7v-6.8
				l-0.79-5.52L1168.55,701.4L1168.55,701.4z"/>
			<path id="_x33__00000074400843863518397850000011838816431391615875_" class="st13" d="M1135.14,791.81l42.27-0.1l5.71-1.28
				l4.24-2.37l8.47-7.2l2.86-2.66"/>
			<path id="_x34__00000008110997889780686860000003290468886883130799_" class="st12" d="M1031.97,864.58l-0.39-69.62l-63.36-1.97
				l20.89-37.96l27.39,15.09l-38.03-68.82l-81.78,3.06l28.08,15.28l-22.17,40.42l-0.99,3.85v3.75l1.18,4.14l41.78,75.82l5.62,5.42
				l6.21,4.44l6.8,3.45l2.86,0.99L1031.97,864.58L1031.97,864.58z"/>
			<path id="_x35__00000127029972277219538380000012294432321776042921_" class="st13" d="M968.81,791.71l-20.49,37.47l-1.48,5.13
				l-0.3,3.55l2.66,13.21l0.79,2.96"/>
			<path id="_x36__00000121977552364957785660000010399023830173548930_" class="st12" d="M961.92,665.32l59.51,36.18l34.78-52.95
				l21.38,37.56l-27.29,15.58l78.63,3.65l40.3-71.28l-27.88,15.87L1118.68,610l-3.55-3.35l-3.74-1.97l-3.35-0.79l-86.12-4.04
				l-8.28,2.07l-7.69,3.45l-7.29,5.03L961.92,665.32L961.92,665.32z"/>
			<path id="_x37__00000062194108786269461720000013649751442545924025_" class="st13" d="M1057,649.64l-21.38-37.27l-4.04-4.14
				l-3.35-2.07l-13.01-4.63l-1.48-0.49"/>
		</g>
	</g>
</g>
</svg>
