<?xml version="1.0" encoding="UTF-8"?><svg xmlns="http://www.w3.org/2000/svg" viewBox="0 0 590.14 268.64"><defs><style>.d{fill:#c158ff;}.e{fill:#3fffc1;}.f{fill:#5f8cff;}</style></defs><g id="a"/><g id="b"><g id="c"><g><g><path class="e" d="M251.28,3.01c4.32,.17,8.46,2.5,12.22,4.28,3.8,1.8,7.54,3.72,11.23,5.72,7.47,4.06,14.71,8.45,21.86,12.98,14.29,9.05,28.19,18.63,42.85,27.17,14.31,8.34,29.46,15.69,45.8,20,19.88,5.24,40.51,4.52,60.93,5.96,21.33,1.5,42.36,5.34,63.14,9.9,10.33,2.27,20.62,4.68,30.9,7.15,9.06,2.18,18.1,4.85,24.91,11.08,6.33,5.8,10.35,13.37,14.18,20.69,3.56,6.81,6.87,14.23,7.14,21.89,.27,7.75-3.65,14.48-11.32,17.91-8.4,3.76-18.64,4.37-27.72,5.84-10.61,1.72-21.56,4.36-32.35,4.67-10.2,.3-19.19-4.27-28.86-6.53-17.8-4.16-36.36-4.11-54.29-7.62-8.8-1.72-17.44-4.37-25.17-8.69-8.36-4.67-15.39-11.01-22.75-16.88-14.32-11.42-30.44-20.67-46.75-29.44-16.28-8.76-32.84-17.13-48.34-27.05-12.83-8.21-23.9-18.33-36.06-27.25-.24-.87-.85-1.63-1.82-1.99l2.07-6.14c-5.28-7.34-8.62-15.84-9.74-24.58-.77-6.02-2.2-19.46,7.96-19.06Z"/><path d="M251.28,6.01c2.86,.18,5.54,1.38,8.09,2.6,2.77,1.33,5.54,2.66,8.27,4.05,5.74,2.93,11.36,6.1,16.9,9.41,10.98,6.57,21.62,13.68,32.36,20.63,20.75,13.42,42.29,26.44,66.32,33.01s51.14,4.74,76.56,7.65,51.58,8.97,77,15.05c10.94,2.62,21.77,5.46,29.44,14.26,3.66,4.2,6.42,9.11,9.03,14.01,2.78,5.23,5.54,10.51,7.08,16.26,1.25,4.65,1.81,9.85-.31,14.34-2,4.25-5.8,6.93-10.12,8.52-5.51,2.03-11.36,2.9-17.15,3.7s-11.88,1.79-17.8,2.88c-6.3,1.16-12.61,2.3-19.01,2.72-6.13,.4-11.76-.56-17.62-2.32-5.82-1.75-11.53-3.67-17.51-4.86-6.34-1.26-12.77-2.08-19.2-2.78-12.5-1.38-25.13-2.26-37.35-5.38-5.86-1.5-11.61-3.5-16.96-6.36s-10.02-6.32-14.64-10.02c-9.63-7.73-19.21-15.26-29.68-21.83-10.58-6.63-21.57-12.58-32.59-18.44s-22.5-11.88-33.43-18.38-20.66-13.7-30.41-21.49c-4.69-3.75-9.39-7.48-14.22-11.04l1.38,1.79c-.58-1.66-1.57-3.03-3.2-3.78l1.38,3.39c.68-2.02,1.56-4.05,2.06-6.12,.35-1.44-.39-2.44-1.16-3.57-.84-1.24-1.63-2.52-2.37-3.82-1.29-2.28-2.41-4.65-3.32-7.1-1.58-4.27-2.59-8.72-3.06-13.25-.3-2.98-.48-6.36,.08-8.97,.32-1.53,.85-2.78,1.53-3.57,.83-.95,2.01-1.22,3.62-1.19,3.86,.08,3.86-5.92,0-6-4.24-.09-7.99,1.92-9.81,5.82-1.64,3.5-1.84,7.53-1.63,11.34,.61,11.13,4.16,21.89,10.63,30.99l-.3-2.31-2.07,6.14c-.39,1.15,.24,2.86,1.38,3.39,.85,.39,.06-.26,.75,.91,.42,.72,1.19,1.16,1.83,1.64,1.26,.93,2.51,1.88,3.76,2.84,2.53,1.95,5.02,3.94,7.52,5.93,4.94,3.94,9.86,7.9,14.95,11.65,10.47,7.72,21.84,14.18,33.25,20.4,22.54,12.29,45.86,23.48,66.48,38.94,9.86,7.39,18.79,16.22,29.93,21.75,11.61,5.77,24.4,8.13,37.17,9.7,13.01,1.6,26.17,2.33,39,5.18,5.95,1.32,11.65,3.51,17.53,5.09,6.28,1.69,12.44,2.1,18.91,1.5s13.11-1.83,19.62-3.02c6.17-1.13,12.36-2.01,18.56-2.92,10.41-1.52,22.97-3.96,28.27-14.23,5.66-10.96,.37-23.71-4.83-33.76s-11.16-20.63-21.39-26.59c-5.01-2.91-10.6-4.75-16.18-6.22-6.31-1.65-12.68-3.08-19.03-4.55-13.15-3.05-26.33-5.97-39.61-8.36s-26.66-4.24-40.12-5.17c-13.13-.91-26.32-.94-39.43-2.27s-25.02-4.32-36.91-9.03-22.68-10.63-33.38-17.09c-22.68-13.68-44.02-29.62-67.81-41.41C262.92,3.63,257.38,.39,251.28,0c-3.86-.24-3.84,5.76,0,6Z"/></g><g><path class="f" d="M189.62,234.64l.56-1.67h0c.2,.08,.41,.15,.65,.19h.02c.11,.02,.22,.04,.34,.05,.12,.01,.25,.02,.39,.02,.17,0,.34-.01,.5-.03,.03,0,.06,0,.09-.01,.15-.02,.3-.05,.44-.09h0c2.8,.55,5.77,.54,8.41,.05"/><path d="M192.51,235.44l.56-1.67-3.69,2.1c.67,.15,1.29,.33,1.99,.36s1.35-.14,2.02-.24h-1.6c3.34,.64,6.66,.66,10,.05,1.55-.28,2.56-2.24,2.1-3.69-.54-1.66-2.03-2.4-3.69-2.1-.14,.02-.69,.2-.8,.13,.42-.05,.52-.07,.29-.04-.1,.01-.21,.02-.31,.04-.49,.05-.97,.09-1.46,.11-1,.04-2,.02-2.99-.07-.21-.02-.43-.04-.64-.07-.34-.04-.28-.03,.16,.02-.14-.02-.28-.04-.42-.07-.21-.04-.42-.08-.63-.11-.65-.11-1.1-.08-1.74,.04-.07,.02-.15,.03-.22,.04-.26,.04-.1,.02,.47-.07-.23-.03-.5,.08-.72,0,.06,.02,.75,.18,.27,.02-.15-.05-.32-.12-.48-.15-1.65-.38-3.15,.5-3.69,2.1l-.56,1.67c-.5,1.49,.58,3.34,2.1,3.69,1.66,.38,3.15-.5,3.69-2.1h0Z"/></g><g><path class="f" d="M246.71,50.47c1.02,.69,2.03,1.39,3.04,2.1h-.03c-.32,0-.61,.04-.88,.1-2.69-2.44-5.87-4.46-9.31-5.77-.21-.55-.58-1.04-1.11-1.38,3.02,1.59,5.82,3.29,8.29,4.95Z"/><path d="M245.2,53.07c1.02,.69,2.03,1.39,3.04,2.1l1.51-5.59c-.57-.03-1.16,.09-1.71,.21l2.92,.77c-3.14-2.83-6.68-5.02-10.63-6.54l2.1,2.1c-.35-.84-.59-1.33-1.16-2.03-.38-.46-.84-.81-1.33-1.15l-3.03,5.18c2.85,1.5,5.62,3.16,8.29,4.95,1.31,.87,3.38,.3,4.1-1.08,.8-1.51,.32-3.17-1.08-4.1-2.68-1.79-5.44-3.44-8.29-4.95-1.39-.73-3.33-.4-4.1,1.08s-.3,3.15,1.08,4.1c-.18-.12-.48-.43-.15-.1,.26,.26,.06,.3-.11-.17,0,.03,.18,.26,.16,.28l-.17-.42c.09,.39,.27,.73,.54,1.02,.5,.65,1.18,.92,1.93,1.22,.1,.04,.64,.26,.19,.07-.42-.18,.01,0,.09,.04,1.14,.51,2.25,1.09,3.32,1.74,.5,.31,1,.63,1.49,.97,.24,.17,.48,.34,.72,.51,.13,.1,.26,.2,.39,.29,.3,.22-.49-.39-.07-.05,.45,.37,.9,.75,1.34,1.13,.87,.75,1.88,1.23,3.06,.9,.42-.11-.23,0-.28,.02,.06-.04,.31-.02,.4-.02,1.26,.06,2.61-.97,2.89-2.2,.31-1.38-.24-2.59-1.38-3.39-1.01-.71-2.02-1.41-3.04-2.1-1.31-.88-3.38-.29-4.1,1.08-.8,1.51-.32,3.17,1.08,4.1Z"/></g><path d="M199.08,230.79c-5.43-1.79-11.12-2.63-16.78-3.34-6.53-.82-13.1-1.29-19.67-1.75-7.1-.5-14.21-.97-21.3-1.66-1.71-.17-3.41-.34-5.11-.54-.85-.1-1.69-.2-2.54-.3-.42-.05-.84-.11-1.26-.16-.54-.07-.56-.07-.06,0-.28-.04-.56-.08-.83-.12-3.47-.49-6.93-1.09-10.36-1.78-13.79-2.75-27.28-6.94-40.27-12.31-.39-.16-.78-.32-1.16-.48,.87,.37-.41-.17-.47-.2-.77-.33-1.54-.67-2.31-1-1.67-.73-3.32-1.49-4.97-2.26-3.17-1.48-6.3-3.04-9.41-4.65-6.19-3.23-12.25-6.71-18.16-10.43-6.59-4.14-12.99-8.57-19.2-13.25-.77-.58-1.54-1.17-2.31-1.76,.74,.57-.34-.27-.4-.31-.44-.34-.87-.68-1.3-1.02-1.52-1.19-3.02-2.4-4.51-3.63-2.97-2.44-5.89-4.94-8.76-7.49-1.76-1.56-4.65-1.86-6.36,0-1.57,1.71-1.88,4.7,0,6.36,10.56,9.37,21.77,18.05,33.57,25.82,11.78,7.76,24.18,14.61,37.08,20.31,13.14,5.81,26.75,10.53,40.77,13.75,14.19,3.26,28.63,4.64,43.13,5.67,6.87,.49,13.74,.92,20.6,1.59,1.56,.15,3.13,.32,4.69,.51,.36,.04,.73,.09,1.09,.13,.17,.02,1.25,.16,.66,.08s.47,.07,.64,.09c.41,.06,.81,.12,1.22,.18,2.75,.42,5.48,.93,8.18,1.61,1.18,.3,2.35,.64,3.51,1.02,2.24,.74,5.01-.85,5.54-3.14,.56-2.48-.75-4.75-3.14-5.54h0Z"/><path d="M582.28,160.2c-29.4,24.72-62.63,44.78-97.89,59.98-35.9,15.47-74.24,25.87-113.04,30.65-21.48,2.65-43.07,2.96-64.66,4.17-22.8,1.27-45.47,4.79-68.34,4.77-43.65-.05-86.28-11.51-127.1-26.13-10.21-3.66-20.34-7.53-30.43-11.51s-19.77-7.83-28.92-13.31c-3.47-2.07-6.06-4.98-9.08-7.6-3.58-3.11-7.49-5.72-10.88-9.06-6.26-6.17-11.2-13.4-16.4-20.43-2.53-3.42-5.12-6.79-7.97-9.96-3.88-4.32-10.23,2.06-6.36,6.36,5.86,6.53,10.6,13.96,16,20.86,2.8,3.58,5.76,7.03,9.04,10.18,3.49,3.35,7.55,5.96,11.11,9.22,3.21,2.95,6.23,5.95,10.01,8.21,4.52,2.7,9.3,5.09,14.09,7.27,9.98,4.54,20.36,8.33,30.61,12.23,41.3,15.73,84.1,29,128.43,32.04,23.18,1.58,46.02-.83,69.08-2.88,22.82-2.03,45.76-1.94,68.58-4.01,39.77-3.61,79.01-12.78,116.21-27.3,37-14.44,71.86-33.95,103.19-58.38,3.75-2.93,7.45-5.93,11.09-8.99,4.44-3.73-1.96-10.07-6.36-6.36h0Z"/><g><path d="M556.51,133.6c6.65,1.24,11.57,7.77,10.53,13.95s-7.9,11.01-14.64,10.32c-1.2-.12-2.45-.43-3.32-1.2-1.75-1.56-1.29-4.18-1.01-6.41,.64-5.17-.49-10.52-3.21-15.08-.63-1.05-1.27-2.51-.28-3.3,.36-.29,.86-.38,1.34-.44,4.83-.68,9.88-.06,14.35,1.77"/><path d="M556.12,135.05c4.4,.89,8.2,4.18,9.3,8.61s-1.44,8.64-5.2,10.91c-1.97,1.19-4.24,1.87-6.55,1.87-1.12,0-2.62-.06-3.52-.83s-.88-2.07-.81-3.16c.17-2.72,.57-5.28,.23-8.02s-1.14-5.5-2.36-8.05c-.28-.59-1.89-2.97-1.59-3.34,.27-.33,1.65-.24,2.08-.28,.89-.07,1.78-.09,2.66-.07,3.28,.07,6.48,.76,9.52,1.98,1.79,.72,2.57-2.18,.8-2.89-3.42-1.36-7.08-2.07-10.76-2.09-2.6-.01-7.54-.17-7.31,3.6,.09,1.41,.99,2.61,1.62,3.82,.89,1.7,1.54,3.51,1.97,5.37,.36,1.57,.55,3.16,.56,4.77,.02,1.76-.31,3.47-.42,5.21-.2,3.2,1.19,5.9,4.47,6.68,2.85,.68,5.98,.25,8.67-.85,5.11-2.09,9.38-6.95,9.21-12.72-.19-6.53-5.49-12.14-11.76-13.4-1.88-.38-2.69,2.51-.8,2.89h0Z"/></g><path d="M254.05,49.15c-15.33-10.05-34.31-12.65-52.12-14.84-2.44-.3-5.04-.39-7.41,.38-2.58,.84-4.62,2.44-6.26,4.56-2.9,3.75-4.36,8.62-5,13.26-1.36,9.81-.11,19.92,.95,29.7,1.12,10.32,2.22,20.67,3.97,30.91s4.32,19.33,7.81,28.66,7.37,18.34,10.61,27.69,5.99,18.9,8.22,28.55c1.1,4.77,2.08,9.58,2.94,14.4,.18,1.04,.36,2.09,.53,3.14,.13,.84,0,0-.01-.14,.03,.24,.06,.47,.09,.71,.06,.53,.11,1.07,.15,1.61,.06,.89,.09,1.79,.06,2.68-.01,.41-.04,.82-.07,1.23-.01,.16-.12,.91-.02,.27,.11-.69-.06,.29-.09,.42-.09,.44-.2,.89-.33,1.32-.06,.19-.53,1.26-.24,.72s-.29,.51-.38,.66c-.12,.19-.24,.38-.36,.57-.55,.86,.4-.35-.03,.03-.34,.31-.68,.66-1.01,.98-.41,.4,.3-.28,.34-.26-.02,0-.4,.26-.46,.3-.07,.04-.98,.58-1.02,.54-.01-.02,1.08-.4,.24-.1-.2,.07-.39,.14-.59,.21-3.4,1.16-7.04,1.44-10.54,2.18-1.84,.39-3.57,.97-5.28,1.76-2.14,.99-2.84,4.25-1.61,6.16,1.42,2.21,3.86,2.67,6.16,1.61,.74-.34-.29,.14-.31,.12,.01,.01,.59-.21,.55-.2,.33-.12,.67-.22,1.01-.31,.84-.24,1.68-.42,2.54-.59,1.77-.35,3.55-.61,5.32-.94,3.77-.7,7.55-1.77,10.41-4.46,6.72-6.33,4.78-16.44,3.31-24.47-3.54-19.3-9.27-37.99-16.51-56.21-3.61-9.08-7.32-18.16-9.83-27.63-1.27-4.79-2.25-9.66-3.06-14.54-.39-2.36-.74-4.74-1.07-7.11-.13-.94-.06-.44-.03-.23-.04-.32-.08-.63-.13-.95-.07-.55-.14-1.11-.21-1.66-.16-1.27-.31-2.54-.47-3.81-1.2-10.07-2.46-20.16-2.95-30.29-.11-2.27-.18-4.55-.12-6.83,.02-1.01,.07-2.03,.16-3.04,.05-.58,.1-1.15,.18-1.73-.02,.19-.13,.81,.02-.09,.05-.28,.09-.57,.14-.85,.2-1.13,.47-2.25,.79-3.35,.14-.48,.3-.96,.47-1.44,.07-.2,.15-.41,.23-.61,.48-1.29-.38,.72,.23-.52,.4-.83,.84-1.62,1.32-2.41,.42-.69,.09-.15-.04,0,.16-.2,.32-.39,.49-.57s.35-.35,.54-.53c.34-.32,.32-.17-.02,0,.22-.11,.44-.27,.66-.39-.16,.09-.83,.24,.04-.01,.26-.08,.52-.15,.79-.21,.06-.02,.73-.11,.21-.05-.57,.07,.3,0,.43,0,.21,0,.42-.01,.63-.01,.64,0,1.27,.05,1.9,.11,1.06,.1,2.11,.25,3.16,.4-.19-.03-.83-.11,.08,.01,.28,.04,.57,.08,.85,.12,.57,.08,1.14,.16,1.71,.24,4.42,.62,8.83,1.29,13.21,2.13s8.64,1.84,12.87,3.14c2.01,.62,4.01,1.31,5.97,2.08,.52,.2,1.04,.41,1.55,.63-.75-.32,.44,.2,.65,.3,1.01,.46,2.02,.94,3.01,1.45,1.92,.98,3.78,2.07,5.58,3.25,1.97,1.29,5.06,.46,6.16-1.61,1.19-2.25,.49-4.78-1.61-6.16h0Z"/><path class="d" d="M23.48,183.21c.71,.66,1.2,1.52,1.91,2.17,.61,.56,1.44,.83,2.06,1.39,.04,.04,.07,.09,.1,.13,.46,.29,.92,.55,1.42,.78,.03,.02,.06,.03,.08,.05,.07,0,.15,.01,.23,.04,3.57,1.08,6.65,3.97,9.34,6.26,1.63,1.39,3.51,2.84,5.36,3.95,1.24,.74,2.58,1.28,3.81,2,.38,.13,.67,.32,.88,.56,.06,.05,.12,.1,.18,.14,4.69,1.64,8.86,4.63,13.09,7.01,5.6,3.15,11.34,6.05,17.56,8.04,.21,.07,.39,.16,.55,.27,.15,.04,.3,.1,.46,.18,1.22,.65,2.48,1.24,3.75,1.78,.05,.01,.11,.02,.16,.04,2.14,.76,4.23,1.42,6.19,2.3,3.06,1,6.18,1.89,9.27,2.88,6.96,2.22,14.12,3.85,21.38,4.96,.27,.04,.49,.12,.68,.23,1.03,.11,2.04,.29,2.97,.65,.04,.02,.09,.04,.13,.06,.36,.04,.72,.09,1.08,.13,.08,0,.15,.03,.23,.05,3.67,.42,7.36,.81,10.95,1.55,17.78,.74,35.33,2.4,52.98,4.78,.22-.01,.43-.02,.65-.05,.55-.05,1.02,.03,1.41,.19,2.3,.22,4.61,.7,6.96,.62,4.09-.14,8.31-.94,12.26-1.87,3.75-.89,7.46-2.2,10.32-4.68,3.16-2.75,3.88-6.05,3.93-9.92,0-.24,.05-.45,.1-.65-.01-.19,0-.38,.01-.58-.16-1.25-.36-2.51-.61-3.76-.03-.16-.05-.32-.06-.48-.13-.3-.2-.61-.22-.94-.61-1.4-1.04-2.94-1.43-4.08-1-2.88-1.71-5.84-2.28-8.81-1.16-6.05-1.64-12.2-3.06-18.21-.08-.34-.09-.65-.06-.95-.67-2.01-1.34-4.03-2.01-6.04-.13-.39-.17-.76-.13-1.09-.67-1.82-1.34-3.63-1.99-5.45-.12-.34-.17-.66-.16-.96-.25-.61-.5-1.22-.75-1.83-.07-.17-.11-.33-.14-.49-.16-.33-.3-.67-.44-1.01-.4-.43-.65-.97-.71-1.54-.07-.21-.12-.42-.14-.64-.36-.75-.69-1.51-.96-2.3-.66-1.95-1.27-3.88-1.91-5.8-1.82-3.81-3.43-7.72-4.87-11.65-.12-.33-.17-.63-.17-.92-.06-.25-.12-.5-.19-.75-.36-1.06-.86-2.08-1.28-3.14-.49-1.22-.85-2.46-1.13-3.73-.79-2.03-1.62-4.05-2.49-6.05-.02-.03-.04-.06-.06-.09-.28-.6-.5-1.22-.68-1.86-.14-.31-.2-.62-.22-.91-.15-.74-.23-1.5-.27-2.25-1.08-3.7-1.72-7.54-2.32-11.36-1.34-8.66-2.64-17.32-3.09-26.06,0-.07,.01-.13,.01-.2-.1-.23-.18-.47-.22-.74-.46-3.2-.78-6.41-.97-9.63-1.09-5-1.38-10.36-1.18-15.27,.24-5.92,1.69-11.69,4.88-16.87,.42-.68,1-1.07,1.62-1.23,.48-.49,1.18-.82,2.11-.82,.56,0,1.02,.13,1.42,.32,2.04-.42,4.16-.08,6.26,.74,.16-.02,.33-.03,.5-.01,.1,0,.19-.01,.29,0,8.82,.71,17.28,2.85,25.62,5.52,6.14,1.97,13.58,3.58,17.98,8.27,2.54,1.01,5.01,2.06,7.2,3.64,2.28,1.64,4.16,3.7,6.32,5.45,5.07,4.12,10.33,8.08,15.65,11.92,5.26,3.8,10.75,7.22,16.35,10.56,3.49,2.08,7.83,4.25,10.5,7.4,8.44,4.13,16.51,9.04,24.7,13.58l1.63,.91h.02c.58,.17,1.04,.44,1.37,.77l9.45,5.24c1.6,.89,3.24,1.75,4.85,2.65,6.6,3.36,12.98,7.07,19.33,10.82,.27,.16,.52,.33,.78,.49,.71,.33,1.42,.67,2.14,1,1.51,.69,2.75,1.77,3.7,3.06,1.92,1.52,3.74,3.13,5.5,4.83,1.82,1.34,3.58,2.75,5.26,4.24,.5,.33,1,.66,1.5,1,.85,.57,1.68,1.11,2.35,1.86,.16,.18,.3,.38,.44,.57,.68,.51,1.35,1.04,2.01,1.58,.39,.11,.77,.3,1.13,.59,4.51,3.61,9.51,6.58,14.71,9.27,5.32,2.75,10.79,5.73,16.74,7.09,6.02,1.37,12.13,2.53,18.24,3.49,6.07,.94,12.4,.76,18.38,2.02,.05,.01,.1,.03,.15,.04,.24,.02,.47,.08,.69,.15,6.07,.21,11.87,1.09,17.86,2.12,4.87,.84,9.93,1.53,14.26,3.79,1.2,.2,2.36,.5,3.49,1.08,.14,.07,.26,.15,.38,.23,3.74,.77,7.51,1.4,11.24,2.08,3.57,.65,7.25,.67,10.87,.35,2.72-.24,5.21-.77,7.81-.84,3.45-1.23,7.89-1.29,11.22-1.8,5.02-.77,10.04-1.55,15.07-2.32,1.63-.4,3.3-.65,4.94-.95,1.85-.34,3.79-.86,5.71-.86,.54-.14,1.12-.2,1.66-.2,.08-.03,.16-.06,.25-.07,.28-.03,.54-.13,.8-.24l.04-.03c.16-.12,.34-.2,.53-.24,.18-.09,.37-.18,.55-.26,.69-.28,1.41-.52,2.02-.95,1.02-.71,2.01,.88,1,1.58-.74,.52-1.64,.76-2.46,1.14-.19,.09-.37,.17-.56,.25-.55,.41-1.1,.81-1.65,1.2-2.21,2.32-5.32,3.86-7.9,5.78-1.24,.93-2.49,1.85-3.79,2.7-.76,.5-1.72,1.28-2.68,1.83-.07,.13-.18,.25-.34,.35-1.32,.81-2.28,1.9-3.51,2.78-1.29,.93-2.8,1.44-4.24,2.14-.3,.15-.6,.3-.9,.46-.05,.05-.12,.1-.19,.15-.62,.38-1.25,.74-1.88,1.12-2.77,2.26-5.27,4.25-8.75,5.42-.84,.5-1.68,.98-2.53,1.46-.08,.14-.21,.27-.41,.37-2.32,1.12-4.39,2.56-6.59,3.84-1.32,.77-2.7,1.45-4.1,2.09-.08,.1-.18,.19-.32,.26-2.35,1.24-4.66,2.49-7.06,3.62-.07,.07-.15,.14-.25,.19-.27,.14-.53,.29-.8,.43-.23,.23-.54,.42-.9,.53l-.15,.04c-2.59,1.42-5.18,2.8-7.93,3.81-4.36,2.19-8.73,4.37-13.18,6.38-2.85,1.29-5.86,2.24-8.73,3.48-2.34,1.01-4.66,2-7.1,2.72-.03,.02-.06,.04-.1,.06-5.79,3.01-12.02,5.1-18.33,6.97-4.77,1.42-9.91,3.6-15.02,4.56-.2,.12-.41,.22-.66,.3-2.51,.85-5.01,1.72-7.52,2.55-1.02,.34-2,.68-3.08,.81-.31,.04-.65,.02-.99,0-.27,.2-.59,.35-.97,.45-6.03,1.52-12.06,3.04-18.15,4.35-2.84,.61-5.69,1.17-8.56,1.66-1.9,.32-4.15,.95-6.22,1-.31,.2-.7,.34-1.17,.41-8.45,1.23-17,2.76-25.57,3.24-.38,.17-.81,.28-1.33,.28-7.67,.04-15.08,2.2-22.79,2.19-1.46,0-2.91-.02-4.37-.03-.36,.16-.78,.27-1.27,.28-5.97,.19-11.92,.66-17.88,1.12-2.46,.19-5.03,.55-7.55,.57-.49,.08-.98,.16-1.49,.2-6.45,.58-12.92,.94-19.41,1.04-2.86,.04-5.73-.03-8.59-.09-.1,.03-.2,.06-.31,.08-7.58,1.23-15.21,1.9-22.86,1.98-.01,0-.02,0-.03,0-9.64,.85-19.3,1.11-28.98,.8-.42-.01-.78-.1-1.11-.23-.15,0-.29,.02-.45,.01-12.07-.74-24.63-.7-36.36-3.7-.41-.1-.75-.26-1.03-.46-.17,0-.35-.03-.53-.06-8.8-1.78-17.87-1.19-26.14-4.96-.1-.05-.2-.1-.29-.15-2.71-.45-5.35-1.12-7.97-1.9-2.33-.69-4.43-2.02-6.76-2.6-.04,0-.07-.02-.11-.04-3.07-.46-6.08-1.47-9.04-2.32-3.43-.99-6.76-2.17-10.07-3.44-.04,0-.08-.01-.12-.02-3.78-.91-7.43-1.76-10.95-3.33-3.29-1.46-6.66-2.36-9.83-4.01-.11-.02-.21-.04-.32-.08-.09-.02-.18-.06-.27-.09-3.65-.9-6.84-2.24-10.4-3.43-2.08-.69-3.93-1.68-5.81-2.63h-.01c-4.31-1.04-9.11-2.86-12.98-4.97-.27-.1-.54-.19-.81-.29-1.87-.64-3.71-1.23-5.39-2.2l-.83-.28c-.23-.08-.44-.2-.63-.34-.02,0-.04,0-.06,0-1.79-.39-3.5-1.44-5.19-2.12-2.05-.83-4.06-1.68-5.91-2.85-1.72-.61-3.29-1.64-4.91-2.45-.49-.25-.96-.51-1.4-.8-1.85-.86-3.62-1.9-5.24-3.08-1.18-.86-2.14-1.89-3.04-2.98-.64-.5-1.22-1.04-1.79-1.6-.14-.1-.28-.2-.42-.3-.26-.19-.45-.41-.64-.65-.18-.1-.31-.25-.38-.43,0,0-.01,0-.02-.01-.17-.08-.29-.19-.37-.31-.51-.27-1.02-.57-1.44-.95-.2-.18-.36-.39-.52-.61-.1-.03-.19-.07-.26-.14-.11-.06-.19-.15-.26-.26l-.09-.21c-1.86-1.07-3.44-2.21-5.1-3.86-2.07-2.05-4.27-3.47-5.81-5.88-.1-.07-.19-.15-.26-.26-.37-.53-1.11-.91-1.6-1.34-.57-.49-1.1-1.02-1.6-1.57-.11-.12-.18-.26-.21-.4-.17-.11-.34-.24-.49-.38-.71-.67-1.19-1.5-1.91-2.17-.9-.84,.51-2.14,1.4-1.29Z"/><path d="M586.46,163.31c3.86,0,3.87-6,0-6s-3.87,6,0,6h0Z"/><path d="M583.93,155.49c.04,2.26-.05,4.51-.27,6.77-.33,3.33,5.39,4.15,5.89,.8s.52-6.72,0-10.18c-.24-1.6-2.27-2.49-3.69-2.1-1.72,.47-2.33,2.08-2.1,3.69,.34,2.29,.33,4.7,0,6.99l5.89,.8c.22-2.25,.32-4.5,.27-6.77-.07-3.86-6.07-3.87-6,0h0Z"/><path d="M556.62,136.1l.99,.69c.34,.22,.72,.34,1.12,.36,.4,.09,.8,.07,1.2-.05,.39-.09,.73-.27,1.02-.54,.33-.21,.58-.49,.77-.84,.37-.7,.55-1.54,.3-2.31l-.3-.72c-.27-.45-.63-.81-1.08-1.08l-.99-.69c-.34-.22-.72-.34-1.12-.36-.4-.09-.8-.07-1.2,.05-.39,.09-.73,.27-1.02,.54-.33,.21-.58,.49-.77,.84-.37,.7-.55,1.54-.3,2.31l.3,.72c.27,.45,.63,.81,1.08,1.08h0Z"/><path d="M557.12,135.73c2.41,1.88,11.03,10.99,3.24,11.76-3.81,.37-3.85,6.38,0,6,4.57-.45,9.02-3.57,9.24-8.55,.24-5.3-4.35-10.42-8.23-13.45-3.01-2.35-7.28,1.87-4.24,4.24h0Z"/><path d="M557.63,146.36c3.86,0,3.87-6,0-6s-3.87,6,0,6h0Z"/><path d="M250.02,54.47c10.32,5.8,18.43,14.41,27.72,21.6,4.71,3.65,9.78,6.3,14.86,9.37,5.7,3.45,10.97,7.71,16.35,11.64,3.12,2.28,6.12-2.92,3.03-5.18-5.16-3.77-10.22-7.83-15.65-11.21s-11.14-6.27-16.26-10.38c-8.93-7.17-16.96-15.37-27.02-21.03-3.37-1.89-6.4,3.29-3.03,5.18h0Z"/><path d="M203.84,40.53l.14,.33,2.59-4.51c-3.74-.17-7.6-.79-11.13,.74-2.98,1.29-5.97,3.07-7.42,6.1-1.66,3.47,3.51,6.51,5.18,3.03,2.42-5.06,8.86-4.07,13.37-3.87,2.51,.11,3.42-2.58,2.59-4.51l-.14-.33c-1.51-3.54-6.68-.49-5.18,3.03h0Z"/><path d="M250.45,48.37c1.46,4.46,4,8.39,7.5,11.53,2.87,2.57,7.12-1.66,4.24-4.24-2.73-2.45-4.81-5.38-5.96-8.88s-6.99-2.09-5.79,1.6h0Z"/><path d="M327.08,106.25c12.29,7.94,25.63,14,38.15,21.54,6.41,3.86,12.51,8.14,18.09,13.14,4.44,3.97,8.52,7.91,14.27,9.87,1.83,.62,2.62-2.27,.8-2.89-6.84-2.32-11.53-8.12-16.99-12.56-5.07-4.12-10.53-7.73-16.16-11.04-12.09-7.12-24.85-13.02-36.65-20.65-1.63-1.05-3.13,1.55-1.51,2.59h0Z"/><path d="M51.94,210.97c-.39-.5-.93-.92-1.51-1.19-.37-.18-.75-.26-1.16-.15-.35,.1-.73,.36-.9,.69-.35,.67-.22,1.69,.54,2.05,.21,.1,.41,.22,.6,.36l-.3-.23c.22,.17,.42,.37,.6,.59,.22,.28,.72,.44,1.06,.44,.37,0,.81-.16,1.06-.44s.46-.66,.44-1.06c-.02-.42-.18-.73-.44-1.06h0Z"/><path d="M52.25,211.02c-1-.84-2.03-1.64-3.12-2.37s-2.38-1.28-3.36-2.15c-1.44-1.28-3.57,.84-2.12,2.12,.98,.87,2.13,1.44,3.22,2.13s2.22,1.52,3.25,2.38c1.47,1.23,3.6-.88,2.12-2.12h0Z"/><path d="M54.9,212.2c-1.92-1.85-4.6-2.39-6.6-4.08-1.47-1.24-3.6,.87-2.12,2.12,2,1.69,4.73,2.27,6.6,4.08,1.39,1.34,3.52-.78,2.12-2.12h0Z"/><path d="M50.62,209.65c-1.05-1.19-2.26-2.06-3.58-2.94-1.8-1.2-2.95-2.54-4.31-4.19-2.52-3.04-6.48-5.15-9.75-7.26-1.63-1.05-3.13,1.55-1.51,2.59,3.83,2.46,7.21,4.81,10.19,8.24,1.98,2.28,4.86,3.41,6.85,5.67,1.28,1.45,3.39-.68,2.12-2.12h0Z"/><path d="M21.65,187.79c2.75,3.45,6.57,5.84,9.62,9.01,3.27,3.4,7.96,6.56,10.35,10.63,.98,1.66,3.57,.16,2.59-1.51-2.36-4.03-6.65-6.88-9.86-10.23s-7.58-6.26-10.59-10.03c-1.2-1.51-3.31,.63-2.12,2.12h0Z"/><path d="M50.06,198.62c-11.13-5.24-22.41-12.24-31.11-20.96-1.36-1.37-3.49,.75-2.12,2.12,8.92,8.95,20.32,16.07,31.71,21.43,1.74,.82,3.26-1.77,1.51-2.59h0Z"/><path d="M56.39,213.42c-2.73-1.35-4.84-3.65-7.65-4.86-1.76-.75-3.29,1.83-1.51,2.59,2.81,1.21,4.92,3.51,7.65,4.86,1.72,.85,3.25-1.73,1.51-2.59h0Z"/></g></g></g></svg>