<?xml version="1.0" encoding="UTF-8"?><svg xmlns="http://www.w3.org/2000/svg" viewBox="0 0 42.77 21"><defs><style>.d{fill:#48cae4;}</style></defs><g id="a"/><g id="b"><g id="c"><path class="d" d="M42.77,21c-2.26-.69-4.41-1.75-6.38-3.07-3.46-2.32-6.37-5.39-8.89-8.69-1.2-1.56-2.65-3.35-2.69-5.42-.02-1,.44-2.13,1.23-2.79,.37-.31,.22-.92-.26-.97-1.88-.2-3.81,.19-5.55,.93-4.45,1.9-7.38,6-10.05,9.88-1.39,2.02-2.77,4.05-4.39,5.88-1.45,1.63-5.79,3.83-5.79,3.83,7.07,0,14.2,.18,21.27,.24l7.3,.07c4.74,.04,9.47,.08,14.21,.12Z"/></g></g></svg>